<svg width="164" height="35" viewBox="0 0 164 35" fill="none" xmlns="http://www.w3.org/2000/svg">
<g clip-path="url(#clip0_545_9)">
<path d="M47.7034 19.6654C49.1777 20.6083 49.9149 21.9627 49.9149 23.7284C49.9149 25.2885 49.3577 26.5571 48.2434 27.5342C47.1291 28.5114 45.749 29 44.1033 29H36.543V10.9995H43.589C45.2004 10.9995 46.5462 11.4795 47.6262 12.4395C48.7234 13.3824 49.272 14.6167 49.272 16.1425C49.272 17.5825 48.7491 18.7568 47.7034 19.6654ZM43.589 14.8567H40.6574V18.0454H43.589C44.0518 18.0454 44.429 17.8997 44.7204 17.6082C45.0119 17.2997 45.1576 16.9139 45.1576 16.4511C45.1576 15.9882 45.0119 15.611 44.7204 15.3196C44.429 15.011 44.0518 14.8567 43.589 14.8567ZM44.1033 25.1427C44.6176 25.1427 45.029 24.9885 45.3376 24.6799C45.6462 24.3541 45.8005 23.9341 45.8005 23.4198C45.8005 22.9055 45.6462 22.4941 45.3376 22.1855C45.029 21.8598 44.6176 21.6969 44.1033 21.6969H40.6574V25.1427H44.1033Z" fill="#275761"/>
<path d="M59.3609 16.1426H63.2182V29.0001H59.3609V27.7915C58.5895 28.8372 57.3637 29.3601 55.6837 29.3601C54.3122 29.3601 53.1636 28.8887 52.2378 27.9458C51.3292 27.0029 50.875 25.7 50.875 24.0371V16.1426H54.7322V23.4714C54.7322 24.2257 54.9379 24.8085 55.3494 25.22C55.7779 25.6143 56.318 25.8114 56.9694 25.8114C57.7066 25.8114 58.2894 25.5886 58.718 25.1428C59.1466 24.6971 59.3609 24.0371 59.3609 23.1628V16.1426Z" fill="#275761"/>
<path d="M76.8491 29H72.4776L68.3632 23.317V29H64.5059V10.9995H68.3632V21.7741L72.2204 16.1425H76.7205L72.0404 22.5712L76.8491 29Z" fill="#275761"/>
<path d="M85.2984 16.1426H89.1557V29.0001H85.2984V27.7915C84.527 28.8372 83.3012 29.3601 81.6212 29.3601C80.2497 29.3601 79.1011 28.8887 78.1754 27.9458C77.2668 27.0029 76.8125 25.7 76.8125 24.0371V16.1426H80.6697V23.4714C80.6697 24.2257 80.8754 24.8085 81.2869 25.22C81.7155 25.6143 82.2555 25.8114 82.9069 25.8114C83.6441 25.8114 84.227 25.5886 84.6555 25.1428C85.0841 24.6971 85.2984 24.0371 85.2984 23.1628V16.1426Z" fill="#275761"/>
<path d="M113.458 10.9995V29H109.343V18.534L104.689 26.1713H104.226L99.5714 18.534V29H95.457V10.9995H99.5714L104.458 18.9969L109.343 10.9995H113.458Z" fill="#275761"/>
<path d="M124.214 16.1425H128.071V29H124.214V27.7914C123.305 28.8371 122.028 29.36 120.382 29.36C118.685 29.36 117.236 28.7086 116.036 27.4057C114.836 26.0856 114.236 24.4742 114.236 22.5712C114.236 20.6683 114.836 19.0654 116.036 17.7625C117.236 16.4425 118.685 15.7825 120.382 15.7825C122.028 15.7825 123.305 16.3053 124.214 17.3511V16.1425ZM118.942 24.8599C119.508 25.4256 120.245 25.7085 121.154 25.7085C122.062 25.7085 122.799 25.4256 123.365 24.8599C123.931 24.2941 124.214 23.5313 124.214 22.5712C124.214 21.6112 123.931 20.8483 123.365 20.2826C122.799 19.7169 122.062 19.434 121.154 19.434C120.245 19.434 119.508 19.7169 118.942 20.2826C118.376 20.8483 118.094 21.6112 118.094 22.5712C118.094 23.5313 118.376 24.2941 118.942 24.8599Z" fill="#275761"/>
<path d="M132.884 19.8969C132.884 20.154 133.098 20.3683 133.527 20.5398C133.973 20.694 134.504 20.8569 135.121 21.0283C135.738 21.1826 136.355 21.3883 136.973 21.6455C137.59 21.9027 138.113 22.3312 138.541 22.9313C138.987 23.5141 139.21 24.2513 139.21 25.1427C139.21 26.5314 138.696 27.5857 137.667 28.3057C136.638 29.0086 135.37 29.36 133.861 29.36C131.152 29.36 129.31 28.34 128.332 26.2999L131.675 24.397C132.018 25.4085 132.747 25.9142 133.861 25.9142C134.787 25.9142 135.25 25.6485 135.25 25.117C135.25 24.8599 135.027 24.6456 134.581 24.4742C134.153 24.3027 133.63 24.1399 133.013 23.9856C132.395 23.8141 131.778 23.5998 131.161 23.3427C130.544 23.0684 130.012 22.6484 129.567 22.0827C129.138 21.5169 128.924 20.8226 128.924 19.9997C128.924 18.6626 129.404 17.6254 130.364 16.8882C131.341 16.1511 132.541 15.7825 133.964 15.7825C135.027 15.7825 135.995 16.0225 136.87 16.5025C137.744 16.9654 138.447 17.6425 138.978 18.534L135.687 20.3083C135.275 19.554 134.701 19.1769 133.964 19.1769C133.244 19.1769 132.884 19.4169 132.884 19.8969Z" fill="#275761"/>
<path d="M143.15 14.3424C142.705 14.7882 142.165 15.011 141.53 15.011C140.896 15.011 140.348 14.7882 139.885 14.3424C139.439 13.8796 139.216 13.331 139.216 12.6967C139.216 12.0624 139.439 11.5224 139.885 11.0766C140.348 10.6138 140.896 10.3823 141.53 10.3823C142.165 10.3823 142.705 10.6138 143.15 11.0766C143.613 11.5224 143.845 12.0624 143.845 12.6967C143.845 13.331 143.613 13.8796 143.15 14.3424ZM139.602 29V16.1425H143.459V29C143.459 31.0058 142.979 32.4544 142.019 33.3458C141.059 34.2373 139.568 34.623 137.545 34.503V30.8C138.265 30.8343 138.787 30.7058 139.113 30.4143C139.439 30.14 139.602 29.6686 139.602 29Z" fill="#275761"/>
<path d="M148.304 14.3424C147.858 14.7882 147.318 15.011 146.683 15.011C146.049 15.011 145.501 14.7882 145.038 14.3424C144.592 13.8796 144.369 13.331 144.369 12.6967C144.369 12.0624 144.592 11.5224 145.038 11.0766C145.501 10.6138 146.049 10.3823 146.683 10.3823C147.318 10.3823 147.858 10.6138 148.304 11.0766C148.766 11.5224 148.998 12.0624 148.998 12.6967C148.998 13.331 148.766 13.8796 148.304 14.3424ZM144.755 29V16.1425H148.612V29H144.755Z" fill="#275761"/>
<path d="M159.225 10.9995H163.083V29H159.225V27.7914C158.317 28.8371 157.04 29.36 155.394 29.36C153.697 29.36 152.248 28.7086 151.048 27.4057C149.848 26.0856 149.248 24.4742 149.248 22.5712C149.248 20.6683 149.848 19.0654 151.048 17.7625C152.248 16.4425 153.697 15.7825 155.394 15.7825C157.04 15.7825 158.317 16.3053 159.225 17.3511V10.9995ZM153.954 24.8599C154.52 25.4256 155.257 25.7085 156.165 25.7085C157.074 25.7085 157.811 25.4256 158.377 24.8599C158.942 24.2941 159.225 23.5313 159.225 22.5712C159.225 21.6112 158.942 20.8483 158.377 20.2826C157.811 19.7169 157.074 19.434 156.165 19.434C155.257 19.434 154.52 19.7169 153.954 20.2826C153.388 20.8483 153.105 21.6112 153.105 22.5712C153.105 23.5313 153.388 24.2941 153.954 24.8599Z" fill="#275761"/>
<path fill-rule="evenodd" clip-rule="evenodd" d="M17.6909 7.62582C17.4469 7.66065 17.1968 7.67666 16.9424 7.6723C14.3641 7.62827 12.3102 5.51404 12.3543 2.95011C12.3738 1.82113 12.7971 0.793228 13.4846 0C11.2558 0.317893 9.52498 2.20539 9.48508 4.51624C9.4408 7.08018 11.4949 9.19436 14.0728 9.23843C15.5158 9.26308 16.817 8.63406 17.6909 7.62582Z" fill="#275761"/>
<path d="M2.30263 27.2826C2.30263 27.2826 2.01283 24.6096 2.30263 22.9348C3.32719 17.0132 13.5869 12.0652 13.5869 12.0652C13.5869 12.0652 23.8466 17.0132 24.8711 22.9348C25.1608 24.6096 24.8711 27.2826 24.8711 27.2826" stroke="#275761" stroke-width="3.26654"/>
<path d="M1.08628 30.1086H9.57163C9.57163 30.1086 12.3632 30.1086 13.5599 31.7207C14.7563 30.1086 17.548 30.1086 17.548 30.1086H26.0876L27.1739 33.3878H18.3456C18.3456 33.3878 16.7502 33.3878 15.9527 34.9999C14.3574 34.9999 12.7621 34.9999 11.1669 34.9999C10.3693 33.3878 8.77397 33.3878 8.77397 33.3878H0L1.08628 30.1086Z" fill="#275761"/>
</g>
<defs>
<clipPath id="clip0_545_9">
<rect width="164" height="35" fill="white"/>
</clipPath>
</defs>
</svg>
