<svg width="164" height="35" viewBox="0 0 164 35" fill="none" xmlns="http://www.w3.org/2000/svg">
<path d="M47.7032 19.6654C49.1775 20.6083 49.9147 21.9627 49.9147 23.7284C49.9147 25.2885 49.3575 26.5571 48.2432 27.5342C47.1289 28.5114 45.7488 29 44.1031 29H36.5428V10.9995H43.5888C45.2002 10.9995 46.546 11.4795 47.626 12.4395C48.7232 13.3824 49.2718 14.6167 49.2718 16.1425C49.2718 17.5825 48.7489 18.7568 47.7032 19.6654ZM43.5888 14.8567H40.6572V18.0454H43.5888C44.0516 18.0454 44.4288 17.8997 44.7202 17.6082C45.0117 17.2997 45.1574 16.9139 45.1574 16.4511C45.1574 15.9882 45.0117 15.611 44.7202 15.3196C44.4288 15.011 44.0516 14.8567 43.5888 14.8567ZM44.1031 25.1427C44.6174 25.1427 45.0288 24.9885 45.3374 24.6799C45.646 24.3541 45.8003 23.9341 45.8003 23.4198C45.8003 22.9055 45.646 22.4941 45.3374 22.1855C45.0288 21.8598 44.6174 21.6969 44.1031 21.6969H40.6572V25.1427H44.1031Z" fill="white"/>
<path d="M59.3617 16.1425H63.219V29H59.3617V27.7914C58.5903 28.8371 57.3645 29.36 55.6845 29.36C54.313 29.36 53.1644 28.8886 52.2386 27.9457C51.33 27.0028 50.8758 25.6999 50.8758 24.037V16.1425H54.733V23.4713C54.733 24.2256 54.9387 24.8084 55.3502 25.2199C55.7787 25.6142 56.3188 25.8113 56.9702 25.8113C57.7074 25.8113 58.2902 25.5885 58.7188 25.1427C59.1474 24.697 59.3617 24.037 59.3617 23.1627V16.1425Z" fill="white"/>
<path d="M76.8481 29H72.4766L68.3622 23.317V29H64.5049V10.9995H68.3622V21.7741L72.2194 16.1425H76.7195L72.0394 22.5712L76.8481 29Z" fill="white"/>
<path d="M85.2987 16.1425H89.156V29H85.2987V27.7914C84.5273 28.8371 83.3015 29.36 81.6215 29.36C80.25 29.36 79.1014 28.8886 78.1757 27.9457C77.2671 27.0028 76.8128 25.6999 76.8128 24.037V16.1425H80.67V23.4713C80.67 24.2256 80.8757 24.8084 81.2872 25.2199C81.7158 25.6142 82.2558 25.8113 82.9072 25.8113C83.6444 25.8113 84.2273 25.5885 84.6558 25.1427C85.0844 24.697 85.2987 24.037 85.2987 23.1627V16.1425Z" fill="white"/>
<path d="M113.457 10.9995V29H109.342V18.534L104.688 26.1713H104.225L99.5707 18.534V29H95.4563V10.9995H99.5707L104.457 18.9969L109.342 10.9995H113.457Z" fill="white"/>
<path d="M124.214 16.1425H128.071V29H124.214V27.7914C123.305 28.8371 122.028 29.36 120.382 29.36C118.685 29.36 117.236 28.7086 116.036 27.4057C114.836 26.0856 114.236 24.4742 114.236 22.5712C114.236 20.6683 114.836 19.0654 116.036 17.7625C117.236 16.4425 118.685 15.7825 120.382 15.7825C122.028 15.7825 123.305 16.3053 124.214 17.3511V16.1425ZM118.942 24.8599C119.508 25.4256 120.245 25.7085 121.154 25.7085C122.062 25.7085 122.799 25.4256 123.365 24.8599C123.931 24.2941 124.214 23.5313 124.214 22.5712C124.214 21.6112 123.931 20.8483 123.365 20.2826C122.799 19.7169 122.062 19.434 121.154 19.434C120.245 19.434 119.508 19.7169 118.942 20.2826C118.376 20.8483 118.094 21.6112 118.094 22.5712C118.094 23.5313 118.376 24.2941 118.942 24.8599Z" fill="white"/>
<path d="M132.884 19.8969C132.884 20.154 133.098 20.3683 133.527 20.5398C133.973 20.694 134.504 20.8569 135.121 21.0283C135.738 21.1826 136.355 21.3883 136.973 21.6455C137.59 21.9027 138.113 22.3312 138.541 22.9313C138.987 23.5141 139.21 24.2513 139.21 25.1427C139.21 26.5314 138.696 27.5857 137.667 28.3057C136.638 29.0086 135.37 29.36 133.861 29.36C131.152 29.36 129.31 28.34 128.332 26.2999L131.675 24.397C132.018 25.4085 132.747 25.9142 133.861 25.9142C134.787 25.9142 135.25 25.6485 135.25 25.117C135.25 24.8599 135.027 24.6456 134.581 24.4742C134.153 24.3027 133.63 24.1399 133.013 23.9856C132.395 23.8141 131.778 23.5998 131.161 23.3427C130.544 23.0684 130.012 22.6484 129.567 22.0827C129.138 21.5169 128.924 20.8226 128.924 19.9997C128.924 18.6626 129.404 17.6254 130.364 16.8882C131.341 16.1511 132.541 15.7825 133.964 15.7825C135.027 15.7825 135.995 16.0225 136.87 16.5025C137.744 16.9654 138.447 17.6425 138.978 18.534L135.687 20.3083C135.275 19.554 134.701 19.1769 133.964 19.1769C133.244 19.1769 132.884 19.4169 132.884 19.8969Z" fill="white"/>
<path d="M143.15 14.3424C142.705 14.7882 142.165 15.011 141.53 15.011C140.896 15.011 140.348 14.7882 139.885 14.3424C139.439 13.8796 139.216 13.331 139.216 12.6967C139.216 12.0624 139.439 11.5224 139.885 11.0766C140.348 10.6138 140.896 10.3823 141.53 10.3823C142.165 10.3823 142.705 10.6138 143.15 11.0766C143.613 11.5224 143.845 12.0624 143.845 12.6967C143.845 13.331 143.613 13.8796 143.15 14.3424ZM139.602 29V16.1425H143.459V29C143.459 31.0058 142.979 32.4544 142.019 33.3458C141.059 34.2373 139.568 34.623 137.545 34.503V30.8C138.265 30.8343 138.787 30.7058 139.113 30.4143C139.439 30.14 139.602 29.6686 139.602 29Z" fill="white"/>
<path d="M148.304 14.3424C147.858 14.7882 147.318 15.011 146.683 15.011C146.049 15.011 145.501 14.7882 145.038 14.3424C144.592 13.8796 144.369 13.331 144.369 12.6967C144.369 12.0624 144.592 11.5224 145.038 11.0766C145.501 10.6138 146.049 10.3823 146.683 10.3823C147.318 10.3823 147.858 10.6138 148.304 11.0766C148.766 11.5224 148.998 12.0624 148.998 12.6967C148.998 13.331 148.766 13.8796 148.304 14.3424ZM144.755 29V16.1425H148.612V29H144.755Z" fill="white"/>
<path d="M159.226 10.9995H163.084V29H159.226V27.7914C158.318 28.8371 157.041 29.36 155.395 29.36C153.698 29.36 152.249 28.7086 151.049 27.4057C149.849 26.0856 149.249 24.4742 149.249 22.5712C149.249 20.6683 149.849 19.0654 151.049 17.7625C152.249 16.4425 153.698 15.7825 155.395 15.7825C157.041 15.7825 158.318 16.3053 159.226 17.3511V10.9995ZM153.955 24.8599C154.521 25.4256 155.258 25.7085 156.166 25.7085C157.075 25.7085 157.812 25.4256 158.378 24.8599C158.943 24.2941 159.226 23.5313 159.226 22.5712C159.226 21.6112 158.943 20.8483 158.378 20.2826C157.812 19.7169 157.075 19.434 156.166 19.434C155.258 19.434 154.521 19.7169 153.955 20.2826C153.389 20.8483 153.106 21.6112 153.106 22.5712C153.106 23.5313 153.389 24.2941 153.955 24.8599Z" fill="white"/>
<path fill-rule="evenodd" clip-rule="evenodd" d="M17.6902 7.62582C17.4462 7.66065 17.1961 7.67666 16.9417 7.6723C14.3634 7.62827 12.3095 5.51404 12.3536 2.95011C12.3731 1.82113 12.7964 0.793228 13.4839 0C11.2551 0.317893 9.52431 2.20539 9.48441 4.51624C9.44013 7.08018 11.4942 9.19436 14.0721 9.23843C15.5151 9.26308 16.8163 8.63406 17.6902 7.62582Z" fill="white"/>
<path d="M2.30269 27.2826C2.30269 27.2826 2.01289 24.6096 2.30269 22.9348C3.32725 17.0132 13.587 12.0652 13.587 12.0652C13.587 12.0652 23.8467 17.0132 24.8712 22.9348C25.1609 24.6096 24.8712 27.2826 24.8712 27.2826" stroke="white" stroke-width="3.26654"/>
<path d="M1.08628 30.1087H9.57163C9.57163 30.1087 12.3632 30.1087 13.5599 31.7208C14.7563 30.1087 17.548 30.1087 17.548 30.1087H26.0876L27.1739 33.3879H18.3456C18.3456 33.3879 16.7502 33.3879 15.9527 35C14.3574 35 12.7621 35 11.1669 35C10.3693 33.3879 8.77397 33.3879 8.77397 33.3879H0L1.08628 30.1087Z" fill="white"/>
</svg>
