<svg width="776" height="411" viewBox="0 0 776 411" fill="none" xmlns="http://www.w3.org/2000/svg">
<g clip-path="url(#clip0_481_2315)">
<path d="M661.119 321.537C661.14 323.749 661.14 325.94 661.119 328.131C661.075 331.471 661.01 334.833 660.967 338.195V339.626C660.923 340.798 660.902 342.012 660.88 343.184C659.362 342.381 657.822 341.557 656.325 340.711C652.16 338.433 648.039 336.091 643.896 333.77L641.164 332.252L641.619 310.019L661.119 320.995V321.558V321.537Z" fill="black" fill-opacity="0.04"/>
<path d="M660.988 182.459L661.118 186.428C654.697 189.986 648.299 193.564 641.879 197.143L641.553 197.338V174.846L660.662 164.174C660.641 165.237 660.641 166.278 660.619 167.341C660.619 172.438 660.814 177.557 660.966 182.459H660.988Z" fill="black" fill-opacity="0.04"/>
<path d="M660.988 376.999L661.118 380.99C654.893 384.438 648.646 387.909 642.443 391.401L641.575 391.878V369.364L660.684 358.714C660.663 359.755 660.663 360.818 660.641 361.859C660.641 366.956 660.836 372.075 660.988 376.977V376.999Z" fill="black" fill-opacity="0.04"/>
<path d="M660.728 261.433V283.861L641.706 294.511V272.083C642.074 271.866 642.421 271.671 642.79 271.454L660.728 261.433Z" fill="black" fill-opacity="0.04"/>
<path d="M660.727 223.388V245.86L641.553 235.253V212.869L660.727 223.388Z" fill="black" fill-opacity="0.04"/>
<path d="M656.932 350.905L635.133 363.052C633.745 363.811 632.899 365.264 632.899 366.848V392.442L631.88 391.813C627.975 389.449 624.071 387.106 620.189 384.742C618.28 383.614 616.349 382.486 614.419 381.315L611.187 379.428C609.821 378.647 608.129 378.647 606.784 379.45L602.034 382.269C598.498 384.373 594.985 386.477 591.471 388.581C589.345 389.861 587.241 391.141 585.137 392.442V366.848C585.137 365.286 584.27 363.833 582.903 363.052L561.104 350.905C562.731 350.059 564.315 349.192 565.898 348.324C570.041 346.025 574.162 343.704 578.066 341.513L582.773 338.867C584.139 338.108 584.985 336.655 584.985 335.093V309.455L606.784 322.426C607.457 322.838 608.216 323.055 608.996 323.055C609.777 323.055 610.537 322.838 611.209 322.426L632.964 309.499L632.444 334.659C632.4 336.243 633.246 337.739 634.634 338.52L639.623 341.318C643.788 343.661 647.931 345.982 652.095 348.324C653.678 349.192 655.305 350.059 656.932 350.905Z" fill="black" fill-opacity="0.04"/>
<path d="M656.889 253.646L638.582 263.906L635.285 265.706C633.897 266.465 633.051 267.919 633.051 269.502V295.183C632.834 295.075 632.639 294.966 632.422 294.858L631.034 294.034C625.069 290.52 618.909 286.897 612.879 283.102C610.32 281.518 607.652 281.54 604.984 283.145L585.007 295.313V269.502C585.007 267.94 584.161 266.487 582.795 265.706L561.148 253.646L582.903 241.587C584.291 240.827 585.137 239.374 585.137 237.791V212.392C587.935 214.018 590.755 215.645 593.553 217.294C596.633 219.094 599.692 220.916 602.815 222.759L606.806 225.145C607.478 225.536 608.237 225.774 609.018 225.774C609.799 225.774 610.58 225.536 611.231 225.145L616.198 222.196C619.82 220.027 623.421 217.879 627.021 215.754C628.973 214.626 630.925 213.519 632.878 212.392V237.813C632.878 239.374 633.723 240.827 635.112 241.608L656.867 253.668L656.889 253.646Z" fill="black" fill-opacity="0.04"/>
<path d="M628.149 205.125C626.327 206.166 624.505 207.229 622.683 208.292C618.974 210.461 615.265 212.674 611.556 214.886L609.04 216.383L607.262 215.32C604.138 213.454 601.058 211.632 597.935 209.81C595.245 208.249 592.556 206.687 589.866 205.125C591.883 203.911 593.901 202.653 595.939 201.438C598.998 199.616 602.034 197.794 605.114 195.972L609.04 193.629L609.821 194.085C611.817 195.256 613.791 196.428 615.743 197.599C619.907 200.093 624.028 202.609 628.171 205.125H628.149Z" fill="black" fill-opacity="0.04"/>
<path d="M615.721 392.16C619.885 394.655 624.007 397.149 628.149 399.665C626.327 400.728 624.484 401.769 622.683 402.832C619.083 404.957 615.504 407.105 611.882 409.252L609.04 410.944L607.023 409.773C603.965 407.951 600.972 406.15 597.957 404.393C595.245 402.81 592.556 401.248 589.866 399.708C591.883 398.472 593.901 397.214 595.939 395.999C599.128 394.112 602.316 392.204 605.527 390.295L609.04 388.213L609.821 388.668C611.817 389.839 613.791 391.011 615.743 392.182L615.721 392.16Z" fill="black" fill-opacity="0.04"/>
<path d="M628.106 302.319L609.04 313.685L590.062 302.363C592.816 300.692 595.549 299.022 598.304 297.352L608.975 290.867C614.788 294.467 620.775 298.003 626.653 301.473L628.041 302.298C628.041 302.298 628.084 302.319 628.106 302.319Z" fill="black" fill-opacity="0.04"/>
<path d="M576.483 369.385V391.9L575.832 391.553C569.542 388.017 563.252 384.482 556.918 380.99L557.026 377.02C557.222 372.075 557.395 366.978 557.373 361.881C557.373 360.839 557.352 359.777 557.352 358.736L576.461 369.385H576.483Z" fill="black" fill-opacity="0.04"/>
<path d="M576.483 212.695V235.253L557.288 245.86V223.454L558.524 222.759C561.257 221.263 564.098 219.658 566.961 218.074C570.128 216.296 573.295 214.495 576.483 212.695Z" fill="black" fill-opacity="0.04"/>
<path d="M576.483 174.824V197.317C569.976 193.695 563.469 190.051 556.896 186.428C557.005 182.828 557.048 179.249 557.113 175.648L557.265 166.582C557.265 165.779 557.265 164.955 557.287 164.152L576.483 174.846V174.824Z" fill="black" fill-opacity="0.04"/>
<path d="M576.353 310.084V332.555L574.205 333.748C570.214 336.004 565.985 338.39 561.733 340.733C560.215 341.579 558.675 342.403 557.178 343.205C557.157 342.034 557.135 340.819 557.113 339.648V338.217C557.027 334.855 556.983 331.493 556.918 328.152C556.897 325.962 556.896 323.771 556.896 321.558V320.995L576.331 310.106L576.353 310.084Z" fill="black" fill-opacity="0.04"/>
<path d="M576.353 272.018V294.489L557.309 283.839V261.433L576.353 272.018Z" fill="black" fill-opacity="0.04"/>
<path d="M572.513 302.276L550.454 314.683C549.088 315.442 548.264 316.895 548.264 318.457V321.537C548.242 323.771 548.242 326.048 548.264 328.282C548.307 331.644 548.372 335.006 548.415 338.368V339.843C548.459 341.123 548.481 342.403 548.502 343.682C545.964 342.056 543.383 340.407 540.737 338.824C537.592 336.937 534.339 335.093 531.15 333.293C529.719 332.49 528.265 331.644 526.812 330.82C525.467 330.061 523.819 330.061 522.452 330.864C515.316 335.093 508.158 339.344 500.979 343.596C501.001 342.359 501.022 341.08 501.044 339.822V338.368C501.109 335.006 501.174 331.644 501.239 328.282C501.261 326.048 501.261 323.793 501.261 321.537V318.457C501.239 316.895 500.415 315.463 499.049 314.683L477.011 302.276L498.615 290.173C500.003 289.414 500.849 287.96 500.849 286.377V260.999L522.539 273.84C523.211 274.23 523.971 274.447 524.751 274.447C525.532 274.447 526.27 274.23 526.964 273.818L533.601 269.871C538.611 266.877 543.622 263.862 548.611 260.891V286.377C548.611 287.939 549.457 289.392 550.823 290.173L572.492 302.276H572.513Z" fill="black" fill-opacity="0.04"/>
<path d="M572.47 205.017L572.34 205.104C569.129 206.926 565.941 208.726 562.731 210.526C559.976 212.066 557.243 213.606 554.597 215.059L550.888 217.142C549.5 217.901 548.654 219.332 548.654 220.916V246.532L527.007 233.431C525.619 232.607 523.905 232.607 522.517 233.431L500.87 246.532V220.872C500.87 219.289 500.003 217.814 498.614 217.055L476.881 205.125L477.315 204.865C484.039 201.091 490.763 197.36 497.487 193.651C500.089 192.198 501.369 189.834 501.261 186.602L501.109 182.155C500.957 177.34 500.762 172.308 500.784 167.384C500.784 166.17 500.805 164.933 500.805 163.719L522.56 176.559C523.233 176.95 523.97 177.167 524.751 177.167C525.532 177.167 526.248 176.95 526.942 176.559L548.632 163.762C548.61 164.673 548.61 165.541 548.61 166.43L548.459 175.041C548.415 178.989 548.35 182.936 548.242 186.884C548.155 189.877 549.456 192.22 552.016 193.63C558.523 197.23 565.008 200.852 571.472 204.475L572.47 205.039V205.017Z" fill="black" fill-opacity="0.04"/>
<path d="M543.926 156.452L524.752 167.775L505.513 156.409C511.933 152.592 518.332 148.796 524.73 145L526.921 146.236C530.023 147.993 533.211 149.794 536.291 151.637C538.851 153.199 541.41 154.826 543.904 156.431L543.926 156.452Z" fill="black" fill-opacity="0.04"/>
<path d="M543.926 350.992L524.752 362.314L505.513 350.949C511.911 347.153 518.332 343.357 524.73 339.561L526.921 340.798C530.023 342.533 533.211 344.355 536.291 346.199C538.851 347.739 541.41 349.387 543.904 350.97L543.926 350.992Z" fill="black" fill-opacity="0.04"/>
<path d="M543.817 253.69C538.937 256.596 534.078 259.503 529.198 262.431L524.773 265.055L505.621 253.733L524.773 242.172L543.817 253.668V253.69Z" fill="black" fill-opacity="0.04"/>
<path d="M492.629 320.973V321.558C492.629 323.749 492.629 325.94 492.607 328.131C492.564 331.471 492.521 334.833 492.456 338.195V339.626C492.412 340.798 492.39 342.012 492.369 343.184C490.872 342.381 489.354 341.557 487.814 340.711C483.649 338.433 479.506 336.069 475.364 333.77L472.652 332.252L473.13 310.019L492.629 320.995V320.973Z" fill="black" fill-opacity="0.04"/>
<path d="M492.477 182.459L492.585 186.428C486.078 190.029 479.593 193.673 473.086 197.295H473.021V174.824L492.13 164.152C492.13 165.215 492.108 166.256 492.108 167.319C492.086 172.416 492.26 177.535 492.455 182.437L492.477 182.459Z" fill="black" fill-opacity="0.04"/>
<path d="M492.477 376.999L492.585 380.99C486.273 384.482 479.983 388.017 473.671 391.509L473.021 391.878V369.364L492.13 358.714C492.13 359.755 492.108 360.818 492.108 361.859C492.086 366.956 492.26 372.075 492.455 376.977L492.477 376.999Z" fill="black" fill-opacity="0.04"/>
<path d="M492.238 261.433V283.839L473.172 294.489V272.04L492.238 261.433Z" fill="black" fill-opacity="0.04"/>
<path d="M492.238 223.388V245.86L473.042 235.253V212.869L492.238 223.388Z" fill="black" fill-opacity="0.04"/>
<path d="M488.42 350.905L466.643 363.052C465.255 363.811 464.387 365.264 464.387 366.848V392.442L463.563 391.943C459.615 389.536 455.646 387.171 451.698 384.764C449.703 383.593 447.729 382.4 445.56 381.142L442.697 379.45C441.331 378.669 439.682 378.669 438.316 379.471L432.611 382.833C429.401 384.742 426.191 386.673 422.981 388.581C420.877 389.861 418.751 391.141 416.647 392.442V366.848C416.647 365.286 415.801 363.833 414.435 363.052L392.614 350.905C394.241 350.059 395.846 349.192 397.451 348.324C401.572 346.047 405.672 343.726 409.554 341.535L414.326 338.867C415.693 338.108 416.517 336.655 416.517 335.093V309.455L438.337 322.448C439.01 322.838 439.769 323.055 440.528 323.055C441.287 323.055 442.068 322.838 442.74 322.426L464.496 309.499L463.975 334.659C463.932 336.243 464.778 337.761 466.188 338.52L472.304 341.969C476.078 344.095 479.831 346.22 483.648 348.324C485.232 349.192 486.837 350.059 488.442 350.905H488.42Z" fill="black" fill-opacity="0.04"/>
<path d="M488.377 253.646L473.65 261.867C471.871 262.843 470.114 263.819 468.422 264.773L466.731 265.749C465.364 266.509 464.518 267.94 464.518 269.524V295.183C464.301 295.075 464.106 294.966 463.889 294.836L462.414 293.99C456.471 290.476 450.333 286.854 444.368 283.123C441.808 281.54 439.141 281.562 436.494 283.167L424.912 290.238C422.114 291.93 419.316 293.621 416.496 295.335V269.524C416.496 267.962 415.65 266.509 414.284 265.728L392.637 253.668L414.414 241.608C415.78 240.849 416.626 239.396 416.626 237.812V212.413C419.424 214.04 422.244 215.667 425.042 217.315C428.144 219.115 431.202 220.937 434.304 222.781L438.295 225.167C438.967 225.557 439.748 225.796 440.529 225.796C441.31 225.796 442.069 225.557 442.741 225.167L447.687 222.217C451.309 220.048 454.909 217.901 458.532 215.775C460.462 214.647 462.436 213.541 464.366 212.413V237.834C464.366 239.396 465.212 240.849 466.6 241.63L488.356 253.69L488.377 253.646Z" fill="black" fill-opacity="0.04"/>
<path d="M459.659 205.125C457.815 206.166 455.993 207.229 454.171 208.292C450.462 210.461 446.753 212.673 443.044 214.886L440.528 216.382L438.75 215.32C435.626 213.454 432.546 211.632 429.444 209.81C426.733 208.249 424.065 206.665 421.354 205.125C423.393 203.889 425.388 202.653 427.427 201.438C430.898 199.356 434.346 197.295 437.882 195.213L440.506 193.651L441.136 194.02C443.196 195.213 445.192 196.427 447.209 197.62C451.373 200.115 455.494 202.631 459.659 205.147V205.125Z" fill="black" fill-opacity="0.04"/>
<path d="M459.573 302.319L440.507 313.685L421.528 302.363C423.458 301.191 425.41 299.998 427.341 298.827L440.463 290.867C446.407 294.532 452.567 298.176 458.032 301.43L459.507 302.298C459.507 302.298 459.551 302.319 459.573 302.319Z" fill="black" fill-opacity="0.04"/>
<path d="M407.972 369.385V391.9L407.104 391.423C400.901 387.931 394.676 384.438 388.429 381.011L388.559 377.085C388.711 372.14 388.906 367.021 388.906 361.902C388.885 360.861 388.885 359.798 388.863 358.757L407.972 369.407V369.385Z" fill="black" fill-opacity="0.04"/>
<path d="M407.972 212.695V235.253L388.797 245.86V223.454L390.012 222.759C392.745 221.263 395.608 219.658 398.45 218.074C401.638 216.296 404.805 214.495 407.972 212.695Z" fill="black" fill-opacity="0.04"/>
<path d="M407.971 174.824V197.317L407.645 197.122C401.247 193.543 394.848 189.964 388.406 186.407L388.536 182.481C388.688 177.535 388.883 172.438 388.883 167.319C388.862 166.256 388.862 165.215 388.84 164.152L407.949 174.824H407.971Z" fill="black" fill-opacity="0.04"/>
<path d="M404.025 302.276L381.966 314.683C380.599 315.442 379.753 316.895 379.753 318.457V321.537C379.731 323.793 379.731 326.048 379.753 328.282C379.818 332.165 379.883 336.069 379.97 340.017C379.97 341.21 379.992 342.468 380.013 343.682C377.476 342.034 374.895 340.407 372.248 338.824C369.125 336.937 365.871 335.093 362.618 333.25C361.186 332.447 359.755 331.623 358.345 330.799C356.978 330.039 355.33 330.039 353.985 330.842L350.688 332.772C344.637 336.351 338.585 339.952 332.512 343.552C332.534 342.316 332.534 341.036 332.555 339.778V338.325C332.642 334.963 332.685 331.601 332.75 328.239C332.772 326.135 332.772 324.031 332.772 321.927V318.413C332.772 316.852 331.926 315.42 330.56 314.639L308.522 302.232L330.169 290.129C331.536 289.37 332.382 287.917 332.382 286.334V260.956L354.094 273.797C354.766 274.187 355.525 274.404 356.284 274.404C357.043 274.404 357.824 274.187 358.497 273.775L366.24 269.155L380.165 260.848V286.334C380.165 287.895 380.989 289.348 382.378 290.129L404.046 302.232L404.025 302.276Z" fill="black" fill-opacity="0.04"/>
<path d="M403.981 205.017C400.727 206.861 397.474 208.704 394.22 210.526C391.466 212.066 388.733 213.606 386.087 215.059L382.377 217.142C380.989 217.901 380.165 219.332 380.165 220.916V246.532L358.518 233.431C357.13 232.607 355.395 232.607 354.007 233.431L332.36 246.532V220.872C332.36 219.289 331.514 217.814 330.126 217.055L308.392 205.125L309.086 204.735C315.723 201.026 322.339 197.295 328.998 193.651C331.601 192.198 332.88 189.834 332.772 186.602L332.642 182.22C332.447 177.34 332.273 172.33 332.295 167.363C332.295 166.17 332.316 164.933 332.316 163.719L352.77 175.909C353.226 176.191 353.725 176.386 354.202 176.603L354.592 176.754C355.156 176.993 355.699 177.102 356.306 177.102C357.065 177.102 357.824 176.885 358.497 176.494L380.208 163.675C380.208 164.89 380.23 166.126 380.252 167.341C380.252 172.308 380.1 177.318 379.905 182.199L379.753 186.58C379.666 189.812 380.924 192.176 383.549 193.629C390.208 197.273 396.823 201.004 403.46 204.713L404.024 205.017H403.981Z" fill="black" fill-opacity="0.04"/>
<path d="M375.415 350.992L356.132 362.379C349.755 358.584 343.356 354.788 336.979 350.97C343.031 347.392 349.061 343.791 355.091 340.234L356.219 339.561L358.366 340.754C361.489 342.533 364.7 344.333 367.78 346.199C370.317 347.717 372.877 349.365 375.393 350.97L375.415 350.992Z" fill="black" fill-opacity="0.04"/>
<path d="M375.306 253.69C370.252 256.705 365.177 259.763 360.079 262.821L356.262 265.077L337.109 253.755L356.218 242.194L375.262 253.69H375.306Z" fill="black" fill-opacity="0.04"/>
<path d="M324.095 320.973V321.971C324.095 324.031 324.095 326.07 324.074 328.131C324.03 331.471 323.987 334.833 323.922 338.195V339.626C323.879 340.798 323.879 342.012 323.857 343.184C322.339 342.381 320.799 341.557 319.302 340.711C315.419 338.585 311.558 336.416 307.719 334.247L304.162 332.23L304.618 309.998L324.117 320.973H324.095Z" fill="black" fill-opacity="0.04"/>
<path d="M323.705 261.433V283.861L304.661 294.511V272.083C305.03 271.866 305.399 271.671 305.767 271.454L323.705 261.433Z" fill="black" fill-opacity="0.04"/>
<path d="M323.705 223.388V245.86L304.553 235.253V212.869L323.705 223.388Z" fill="black" fill-opacity="0.04"/>
<path d="M319.909 350.905L298.132 363.052C296.744 363.811 295.898 365.264 295.898 366.848V392.442L294.748 391.748C290.887 389.406 287.026 387.085 283.187 384.742C281.127 383.527 279.088 382.291 277.006 381.076L274.208 379.428C272.841 378.647 271.149 378.647 269.804 379.45L265.011 382.291C261.497 384.395 257.983 386.477 254.491 388.581C252.387 389.861 250.262 391.141 248.158 392.442V366.848C248.158 365.286 247.312 363.833 245.945 363.052L224.146 350.905C225.73 350.059 227.357 349.192 228.94 348.324C233.126 345.982 237.269 343.661 241.195 341.47L245.815 338.867C247.182 338.108 248.027 336.655 248.027 335.093C248.027 326.287 248.027 317.849 248.006 309.455L269.804 322.426C270.477 322.838 271.236 323.055 272.017 323.055C272.798 323.055 273.557 322.838 274.229 322.426L295.985 309.499L295.464 334.659C295.442 336.243 296.288 337.739 297.676 338.52L303.251 341.665C307.198 343.878 311.168 346.09 315.137 348.324C316.72 349.192 318.347 350.059 319.931 350.905H319.909Z" fill="black" fill-opacity="0.04"/>
<path d="M319.887 253.646L301.559 263.906C300.8 264.318 300.041 264.73 299.195 265.207L298.262 265.706C296.874 266.465 296.006 267.919 296.006 269.502V295.183C295.811 295.075 295.594 294.966 295.399 294.858L294.011 294.034C288.046 290.52 281.886 286.897 275.856 283.102C273.275 281.518 270.607 281.54 267.961 283.145L256.378 290.216C253.58 291.908 250.782 293.6 248.006 295.313V269.502C248.006 267.94 247.138 266.487 245.772 265.706L224.125 253.646L245.902 241.587C247.268 240.827 248.114 239.374 248.114 237.791V212.392C250.934 214.018 253.732 215.645 256.552 217.294C259.632 219.094 262.69 220.916 265.814 222.759L269.805 225.145C270.477 225.536 271.236 225.774 272.017 225.774C272.798 225.774 273.557 225.536 274.229 225.145L279.175 222.196C282.819 220.027 286.398 217.879 290.02 215.754C291.95 214.626 293.924 213.519 295.876 212.392V237.813C295.876 239.374 296.722 240.827 298.089 241.608L319.866 253.668L319.887 253.646Z" fill="black" fill-opacity="0.04"/>
<path d="M291.127 205.125C289.305 206.166 287.461 207.229 285.639 208.292C281.952 210.461 278.243 212.674 274.512 214.886L272.018 216.383L270.239 215.32C267.094 213.454 264.014 211.632 260.912 209.81C258.244 208.249 255.533 206.665 252.822 205.125C254.861 203.889 256.878 202.653 258.917 201.438C262.452 199.312 265.988 197.208 269.61 195.039L271.996 193.629L272.582 193.977C274.664 195.169 276.681 196.384 278.698 197.599C282.863 200.093 287.006 202.609 291.148 205.125H291.127Z" fill="black" fill-opacity="0.04"/>
<path d="M291.061 302.319L271.995 313.685L253.016 302.363C254.947 301.191 256.92 299.998 258.851 298.827L271.952 290.867C277.808 294.511 283.816 298.046 289.608 301.473L290.996 302.298C290.996 302.298 291.039 302.319 291.061 302.319Z" fill="black" fill-opacity="0.04"/>
<path d="M239.46 369.385V391.9L238.831 391.553C232.519 388.017 226.25 384.482 219.895 380.99L220.025 377.02C220.22 372.075 220.394 366.978 220.372 361.881C220.372 360.839 220.351 359.777 220.351 358.736L239.438 369.385H239.46Z" fill="black" fill-opacity="0.04"/>
<path d="M239.46 212.695V235.253L220.286 245.86V223.454L221.522 222.759C224.234 221.263 227.097 219.658 229.938 218.074C233.127 216.296 236.294 214.495 239.46 212.695Z" fill="black" fill-opacity="0.04"/>
<path d="M239.46 174.824V197.317L238.332 196.688C232.215 193.239 226.077 189.834 219.895 186.407C219.982 182.806 220.025 179.227 220.112 175.627L220.242 166.56C220.264 165.758 220.264 164.933 220.264 164.131L239.46 174.824Z" fill="black" fill-opacity="0.04"/>
<path d="M239.33 272.018V294.489L220.286 283.839V261.433L239.33 272.018Z" fill="black" fill-opacity="0.04"/>
<path d="M239.309 310.084C239.331 317.459 239.331 324.877 239.331 332.555L236.901 333.922C232.975 336.113 228.833 338.455 224.69 340.733C223.193 341.579 221.675 342.403 220.135 343.205C220.113 342.034 220.091 340.819 220.091 339.648V338.217C220.005 334.855 219.961 331.493 219.896 328.152C219.853 325.962 219.875 323.771 219.875 321.558V320.995L239.287 310.106L239.309 310.084Z" fill="black" fill-opacity="0.04"/>
<path d="M235.512 302.276L213.453 314.683C212.086 315.442 211.24 316.895 211.24 318.457V321.537C211.24 323.793 211.219 326.048 211.262 328.282C211.306 331.644 211.349 335.006 211.414 338.368V339.843C211.457 341.123 211.457 342.403 211.479 343.682C208.941 342.056 206.36 340.407 203.736 338.824C200.525 336.893 197.272 335.028 194.105 333.249C192.674 332.447 191.242 331.623 189.811 330.82C188.466 330.039 186.796 330.039 185.451 330.842L180.18 333.965C174.801 337.154 169.378 340.364 163.977 343.574C163.999 342.338 164.021 341.058 164.043 339.8V338.347C164.108 334.985 164.173 331.623 164.238 328.261C164.259 326.027 164.259 323.749 164.238 321.515V318.435C164.238 316.873 163.392 315.442 162.025 314.661L140.01 302.232L161.613 290.151C162.98 289.392 163.826 287.939 163.826 286.355V260.978L185.538 273.818C186.21 274.209 186.969 274.426 187.728 274.426C188.487 274.426 189.268 274.209 189.962 273.797L198.4 268.764C202.803 266.14 207.206 263.494 211.609 260.869V286.355C211.609 287.917 212.455 289.37 213.822 290.151L235.49 302.254L235.512 302.276Z" fill="black" fill-opacity="0.04"/>
<path d="M235.47 205.017L235.318 205.104C232.129 206.926 228.919 208.726 225.731 210.526C222.976 212.066 220.221 213.606 217.575 215.059L213.866 217.142C212.5 217.901 211.654 219.332 211.654 220.916V246.532L190.007 233.431C188.619 232.607 186.884 232.607 185.517 233.431L163.849 246.532V220.872C163.849 219.289 163.003 217.814 161.614 217.055L139.881 205.125L140.315 204.865C147.017 201.091 153.741 197.36 160.465 193.651C163.068 192.198 164.347 189.834 164.261 186.602L164.109 182.155C163.914 177.34 163.74 172.308 163.762 167.384C163.762 166.191 163.783 164.955 163.805 163.74L184.237 175.93C184.693 176.212 185.192 176.407 185.669 176.624L186.059 176.776C186.623 177.015 187.187 177.123 187.773 177.123C188.554 177.123 189.291 176.906 189.985 176.516L211.632 163.74C211.61 164.651 211.61 165.519 211.589 166.408L211.459 175.019C211.415 178.967 211.35 182.915 211.22 186.862C211.155 189.855 212.435 192.198 215.016 193.608C221.696 197.295 228.334 201.026 234.993 204.757L235.47 205.017Z" fill="black" fill-opacity="0.04"/>
<path d="M206.925 350.992L187.642 362.379C181.244 358.584 174.867 354.788 168.468 350.97C174.889 347.153 181.309 343.357 187.708 339.561L189.877 340.776C192.978 342.533 196.188 344.333 199.268 346.199C201.85 347.739 204.387 349.387 206.903 350.97L206.925 350.992Z" fill="black" fill-opacity="0.04"/>
<path d="M206.795 253.69C201.936 256.575 197.099 259.481 192.241 262.388L187.729 265.055L168.577 253.733L187.729 242.172L206.773 253.668L206.795 253.69Z" fill="black" fill-opacity="0.04"/>
<path d="M155.584 321.537C155.606 323.749 155.606 325.94 155.584 328.131C155.541 331.471 155.476 334.833 155.432 338.195V339.626C155.389 340.798 155.367 342.012 155.346 343.184C153.827 342.381 152.287 341.557 150.791 340.711C146.821 338.52 142.874 336.308 138.926 334.074L135.651 332.23L136.106 309.998L155.606 320.973V321.537H155.584Z" fill="black" fill-opacity="0.04"/>
<path d="M155.453 182.459L155.584 186.428C149.077 190.029 142.591 193.673 136.062 197.295H136.019V174.824L155.128 164.152C155.106 165.215 155.085 166.256 155.085 167.319C155.063 172.416 155.237 177.535 155.432 182.437L155.453 182.459Z" fill="black" fill-opacity="0.04"/>
<path d="M155.453 376.999L155.584 380.99C149.25 384.482 142.96 388.017 136.648 391.509L136.019 391.878V369.364L155.128 358.714C155.106 359.755 155.085 360.818 155.085 361.859C155.063 366.956 155.237 372.075 155.432 376.977L155.453 376.999Z" fill="black" fill-opacity="0.04"/>
<path d="M155.193 261.433V283.839L136.171 294.489V272.04L155.193 261.433Z" fill="black" fill-opacity="0.04"/>
<path d="M155.193 223.388V245.86L136.019 235.253V212.869L155.193 223.388Z" fill="black" fill-opacity="0.04"/>
<path d="M151.376 350.905L129.599 363.052C128.211 363.811 127.365 365.264 127.365 366.848V392.464L126.324 391.813C122.441 389.449 118.537 387.106 114.633 384.742C112.681 383.571 110.663 382.378 108.494 381.12L105.653 379.428C104.287 378.647 102.595 378.647 101.25 379.45L96.4998 382.269C92.9643 384.373 89.4504 386.477 85.9366 388.581C83.811 389.861 81.707 391.141 79.5814 392.442V366.848C79.5814 365.286 78.7355 363.833 77.369 363.052L55.5703 350.905C57.1971 350.059 58.7805 349.192 60.3639 348.324C64.5067 346.047 68.5844 343.726 72.4887 341.535L77.2389 338.867C78.6053 338.108 79.4513 336.655 79.4513 335.093V309.455L101.228 322.426C101.901 322.838 102.681 323.055 103.462 323.055C104.243 323.055 105.002 322.838 105.675 322.426L127.43 309.499L126.909 334.659C126.866 336.243 127.712 337.761 129.1 338.52L133.785 341.145C138.037 343.531 142.288 345.917 146.561 348.303C148.144 349.17 149.771 350.038 151.354 350.884L151.376 350.905Z" fill="black" fill-opacity="0.04"/>
<path d="M151.354 253.646L136.605 261.867C135.043 262.735 133.438 263.646 131.898 264.491L129.707 265.728C128.341 266.487 127.517 267.919 127.517 269.502V295.161C127.3 295.053 127.104 294.945 126.888 294.836L125.239 293.86C119.318 290.368 113.223 286.767 107.345 283.08C104.785 281.497 102.117 281.518 99.4494 283.123L79.4727 295.292V269.48C79.4727 267.919 78.6268 266.465 77.2603 265.684L55.5918 253.625L77.3688 241.565C78.757 240.806 79.5812 239.352 79.5812 237.769V212.37C82.4009 213.997 85.2207 215.623 88.0187 217.272C91.0987 219.072 94.157 220.894 97.2804 222.738L101.271 225.124C101.944 225.514 102.703 225.753 103.484 225.753C104.265 225.753 105.024 225.514 105.696 225.124L110.663 222.174C114.286 220.005 117.886 217.857 121.487 215.732C123.417 214.604 125.391 213.498 127.343 212.37V237.791C127.343 239.352 128.189 240.806 129.577 241.587L151.332 253.646H151.354Z" fill="black" fill-opacity="0.04"/>
<path d="M110.187 197.599C114.33 200.093 118.473 202.609 122.615 205.125C120.794 206.166 118.95 207.229 117.15 208.292C113.441 210.461 109.732 212.674 106.022 214.886L103.506 216.383L101.728 215.32C98.5827 213.454 95.5244 211.632 92.401 209.81C89.7331 208.249 87.0218 206.665 84.3105 205.125C86.3494 203.889 88.3666 202.653 90.4055 201.438C93.4638 199.616 96.5005 197.794 99.5805 195.972L103.506 193.629L104.135 193.998C106.196 195.191 108.191 196.406 110.209 197.599H110.187Z" fill="black" fill-opacity="0.04"/>
<path d="M122.615 399.665C120.794 400.728 118.95 401.769 117.128 402.832C113.549 404.957 109.948 407.105 106.348 409.252L103.506 410.944L101.489 409.773C98.4309 407.951 95.4159 406.15 92.401 404.393C89.7331 402.81 87.0218 401.248 84.3105 399.708C86.3494 398.472 88.3666 397.214 90.4055 395.999C93.594 394.112 96.7824 392.204 99.9709 390.295L103.506 388.213L104.135 388.581C106.196 389.774 108.191 390.967 110.209 392.182C114.373 394.676 118.494 397.171 122.637 399.687L122.615 399.665Z" fill="black" fill-opacity="0.04"/>
<path d="M122.571 302.319L103.506 313.685L84.5049 302.363C87.2379 300.714 89.9274 299.087 92.6387 297.417L103.44 290.867C109.167 294.424 115.045 297.894 120.728 301.256L122.484 302.298C122.484 302.298 122.55 302.319 122.571 302.319Z" fill="black" fill-opacity="0.04"/>
<path d="M70.9272 369.385V391.9L70.0813 391.423C63.8779 387.931 57.6311 384.438 51.3843 381.011L51.5144 377.085C51.7096 372.14 51.8832 367.021 51.8615 361.902C51.8615 360.861 51.8398 359.798 51.8398 358.757L70.9272 369.407V369.385Z" fill="black" fill-opacity="0.04"/>
<path d="M70.9271 212.695V235.253L51.7529 245.86V223.454L52.9893 222.759C55.7222 221.263 58.5637 219.658 61.4268 218.074C64.5935 216.296 67.7603 214.495 70.9271 212.695Z" fill="black" fill-opacity="0.04"/>
<path d="M70.9274 174.824V197.317L70.602 197.122C64.2034 193.543 57.8048 189.964 51.3628 186.407L51.4929 182.481C51.6881 177.535 51.8617 172.438 51.84 167.319C51.84 166.256 51.8183 165.215 51.8183 164.152L70.9057 174.824H70.9274Z" fill="black" fill-opacity="0.04"/>
<path d="M70.8189 331.015V332.534L68.5848 333.77C64.6155 336.004 60.4076 338.368 56.1997 340.689C54.6814 341.535 53.1414 342.359 51.6231 343.162C51.6014 341.991 51.6014 340.776 51.5797 339.605V338.173C51.4929 334.811 51.4496 331.449 51.3845 328.109C51.3628 325.918 51.3628 323.727 51.3628 321.515V320.951L70.7972 310.063V331.015H70.8189Z" fill="black" fill-opacity="0.04"/>
<path d="M70.8189 272.018V294.489L51.7749 283.839V261.433L70.8189 272.018Z" fill="black" fill-opacity="0.04"/>
<path d="M38.3924 350.992L19.1965 362.314L-0.0209961 350.949C6.00889 347.37 12.0388 343.791 18.0687 340.234L19.1965 339.561C19.934 339.973 20.6932 340.407 21.474 340.863C24.554 342.598 27.6991 344.398 30.7574 346.22C33.2952 347.739 35.833 349.387 38.3707 350.992H38.3924Z" fill="black" fill-opacity="0.04"/>
<path d="M19.2394 242.194L38.2834 253.69C33.2079 256.705 28.1541 259.763 23.0352 262.821L19.2177 265.077L0.0869141 253.755L19.2394 242.194Z" fill="black" fill-opacity="0.04"/>
</g>
<g clip-path="url(#clip1_481_2315)">
<path d="M775.119 176.537C775.14 178.749 775.14 180.94 775.119 183.131C775.075 186.471 775.01 189.833 774.967 193.195V194.626C774.923 195.798 774.902 197.012 774.88 198.184C773.362 197.381 771.822 196.557 770.325 195.711C766.16 193.433 762.039 191.091 757.896 188.77L755.164 187.252L755.619 165.019L775.119 175.995V176.558V176.537Z" fill="black" fill-opacity="0.04"/>
<path d="M774.988 37.459L775.118 41.4283C768.697 44.9855 762.299 48.5644 755.879 52.1433L755.553 52.3385V29.8457L774.662 19.1741C774.641 20.237 774.641 21.2781 774.619 22.3409C774.619 27.4381 774.814 32.557 774.966 37.459H774.988Z" fill="black" fill-opacity="0.04"/>
<path d="M774.988 231.999L775.118 235.99C768.893 239.438 762.646 242.909 756.443 246.401L755.575 246.878V224.364L774.684 213.714C774.663 214.755 774.663 215.818 774.641 216.859C774.641 221.956 774.836 227.075 774.988 231.977V231.999Z" fill="black" fill-opacity="0.04"/>
<path d="M774.728 116.433V138.861L755.706 149.511V127.083C756.074 126.866 756.421 126.671 756.79 126.454L774.728 116.433Z" fill="black" fill-opacity="0.04"/>
<path d="M774.727 78.3885V100.86L755.553 90.253V67.8687L774.727 78.3885Z" fill="black" fill-opacity="0.04"/>
<path d="M690.483 67.6952V90.253L671.288 100.86V78.4535L672.524 77.7595C675.257 76.2628 678.098 74.6578 680.961 73.0744C684.128 71.2958 687.295 69.4955 690.483 67.6952Z" fill="black" fill-opacity="0.04"/>
<path d="M690.353 165.084V187.555L688.205 188.748C684.214 191.004 679.985 193.39 675.733 195.733C674.215 196.579 672.675 197.403 671.178 198.205C671.157 197.034 671.135 195.819 671.113 194.648V193.217C671.027 189.855 670.983 186.493 670.918 183.152C670.897 180.962 670.896 178.771 670.896 176.558V175.995L690.331 165.106L690.353 165.084Z" fill="black" fill-opacity="0.04"/>
<path d="M690.353 127.018V149.489L671.309 138.839V116.433L690.353 127.018Z" fill="black" fill-opacity="0.04"/>
<path d="M657.926 205.992L638.752 217.314L619.513 205.949C625.911 202.153 632.332 198.357 638.73 194.561L640.921 195.798C644.023 197.533 647.211 199.355 650.291 201.199C652.851 202.739 655.41 204.387 657.904 205.97L657.926 205.992Z" fill="black" fill-opacity="0.04"/>
<path d="M657.817 108.69C652.937 111.596 648.078 114.503 643.198 117.431L638.773 120.055L619.621 108.733L638.773 97.1722L657.817 108.668V108.69Z" fill="black" fill-opacity="0.04"/>
<path d="M606.629 175.973V176.558C606.629 178.749 606.629 180.94 606.607 183.131C606.564 186.471 606.521 189.833 606.456 193.195V194.626C606.412 195.798 606.39 197.012 606.369 198.184C604.872 197.381 603.354 196.557 601.814 195.711C597.649 193.433 593.506 191.069 589.364 188.77L586.652 187.252L587.13 165.019L606.629 175.995V175.973Z" fill="black" fill-opacity="0.04"/>
<path d="M606.477 37.459L606.585 41.4283C600.078 45.0289 593.593 48.6729 587.086 52.2951H587.021V29.8241L606.13 19.1525C606.13 20.2153 606.108 21.2564 606.108 22.3192C606.086 27.4164 606.26 32.5353 606.455 37.4373L606.477 37.459Z" fill="black" fill-opacity="0.04"/>
<path d="M606.477 231.999L606.585 235.99C600.273 239.482 593.983 243.017 587.671 246.509L587.021 246.878V224.364L606.13 213.714C606.13 214.755 606.108 215.818 606.108 216.859C606.086 221.956 606.26 227.075 606.455 231.977L606.477 231.999Z" fill="black" fill-opacity="0.04"/>
<path d="M606.238 116.433V138.839L587.172 149.489V127.04L606.238 116.433Z" fill="black" fill-opacity="0.04"/>
<path d="M606.238 78.3885V100.86L587.042 90.253V67.8687L606.238 78.3885Z" fill="black" fill-opacity="0.04"/>
<path d="M602.42 205.905L580.643 218.052C579.255 218.811 578.387 220.264 578.387 221.848V247.442L577.563 246.943C573.615 244.536 569.646 242.171 565.698 239.764C563.703 238.593 561.729 237.4 559.56 236.142L556.697 234.45C555.331 233.669 553.682 233.669 552.316 234.471L546.611 237.833C543.401 239.742 540.191 241.673 536.981 243.581C534.877 244.861 532.751 246.141 530.647 247.442V221.848C530.647 220.286 529.801 218.833 528.435 218.052L506.614 205.905C508.241 205.059 509.846 204.192 511.451 203.324C515.572 201.047 519.672 198.726 523.554 196.535L528.326 193.867C529.693 193.108 530.517 191.655 530.517 190.093V164.455L552.337 177.448C553.01 177.838 553.769 178.055 554.528 178.055C555.287 178.055 556.068 177.838 556.74 177.426L578.496 164.499L577.975 189.659C577.932 191.243 578.778 192.761 580.188 193.52L586.304 196.969C590.078 199.095 593.831 201.22 597.648 203.324C599.232 204.192 600.837 205.059 602.442 205.905H602.42Z" fill="black" fill-opacity="0.04"/>
<path d="M602.377 108.646L587.65 116.867C585.871 117.843 584.114 118.819 582.422 119.773L580.731 120.749C579.364 121.509 578.518 122.94 578.518 124.524V150.183C578.301 150.075 578.106 149.966 577.889 149.836L576.414 148.99C570.471 145.476 564.333 141.854 558.368 138.123C555.808 136.54 553.141 136.562 550.494 138.167L538.912 145.238C536.114 146.93 533.316 148.621 530.496 150.335V124.524C530.496 122.962 529.65 121.509 528.284 120.728L506.637 108.668L528.414 96.6083C529.78 95.8491 530.626 94.3959 530.626 92.8125V67.4132C533.424 69.04 536.244 70.6667 539.042 72.3152C542.144 74.1155 545.202 75.9375 548.304 77.7811L552.295 80.1671C552.967 80.5575 553.748 80.7961 554.529 80.7961C555.31 80.7961 556.069 80.5575 556.741 80.1671L561.687 77.2172C565.309 75.0482 568.909 72.9008 572.532 70.7752C574.462 69.6473 576.436 68.5411 578.366 67.4132V92.8342C578.366 94.3959 579.212 95.8491 580.6 96.6299L602.356 108.69L602.377 108.646Z" fill="black" fill-opacity="0.04"/>
<path d="M573.659 60.1253C571.815 61.1664 569.993 62.2292 568.171 63.2921C564.462 65.4611 560.753 67.6735 557.044 69.8859L554.528 71.3825L552.75 70.3197C549.626 68.4543 546.546 66.6324 543.444 64.8104C540.733 63.2487 538.065 61.6653 535.354 60.1253C537.393 58.8889 539.388 57.6526 541.427 56.4379C544.898 54.3557 548.346 52.2951 551.882 50.2128L554.506 48.6512L555.136 49.0199C557.196 50.2129 559.192 51.4275 561.209 52.6205C565.373 55.1148 569.494 57.6309 573.659 60.147V60.1253Z" fill="black" fill-opacity="0.04"/>
<path d="M573.573 157.319L554.507 168.685L535.528 157.363C537.458 156.191 539.41 154.998 541.341 153.827L554.463 145.867C560.407 149.532 566.567 153.176 572.032 156.43L573.507 157.298C573.507 157.298 573.551 157.319 573.573 157.319Z" fill="black" fill-opacity="0.04"/>
<path d="M521.972 224.385V246.9L521.104 246.423C514.901 242.931 508.676 239.438 502.429 236.011L502.559 232.085C502.711 227.14 502.906 222.021 502.906 216.902C502.885 215.861 502.885 214.798 502.863 213.757L521.972 224.407V224.385Z" fill="black" fill-opacity="0.04"/>
<path d="M521.972 67.6952V90.253L502.797 100.86V78.4535L504.012 77.7595C506.745 76.2628 509.608 74.6578 512.45 73.0744C515.638 71.2958 518.805 69.4955 521.972 67.6952Z" fill="black" fill-opacity="0.04"/>
<path d="M521.971 29.8241V52.3168L521.645 52.1216C515.247 48.5427 508.848 44.9638 502.406 41.4066L502.536 37.4807C502.688 32.5353 502.883 27.4381 502.883 22.3192C502.862 21.2564 502.862 20.2153 502.84 19.1525L521.949 29.8241H521.971Z" fill="black" fill-opacity="0.04"/>
<path d="M518.025 157.276L495.966 169.683C494.599 170.442 493.753 171.895 493.753 173.457V176.537C493.731 178.793 493.731 181.048 493.753 183.282C493.818 187.165 493.883 191.069 493.97 195.017C493.97 196.21 493.992 197.468 494.013 198.682C491.476 197.034 488.895 195.407 486.248 193.824C483.125 191.937 479.871 190.093 476.618 188.249C475.186 187.447 473.755 186.623 472.345 185.799C470.978 185.039 469.33 185.039 467.985 185.842L464.688 187.772C458.637 191.351 452.585 194.952 446.512 198.552C446.534 197.316 446.534 196.036 446.555 194.778V193.325C446.642 189.963 446.685 186.601 446.75 183.239C446.772 181.135 446.772 179.031 446.772 176.927V173.413C446.772 171.852 445.926 170.42 444.56 169.639L422.522 157.232L444.169 145.129C445.536 144.37 446.382 142.917 446.382 141.334V115.956L468.094 128.797C468.766 129.187 469.525 129.404 470.284 129.404C471.043 129.404 471.824 129.187 472.497 128.775L480.24 124.155L494.165 115.848V141.334C494.165 142.895 494.989 144.348 496.378 145.129L518.046 157.232L518.025 157.276Z" fill="black" fill-opacity="0.04"/>
<path d="M517.981 60.0168C514.727 61.8605 511.474 63.7042 508.22 65.5261C505.466 67.0662 502.733 68.6062 500.087 70.0594L496.377 72.1417C494.989 72.9008 494.165 74.3324 494.165 75.9158V101.532L472.518 88.431C471.13 87.6068 469.395 87.6068 468.007 88.431L446.36 101.532V75.8724C446.36 74.289 445.514 72.8141 444.126 72.0549L422.392 60.1253L423.086 59.7349C429.723 56.0258 436.339 52.2951 442.998 48.6512C445.601 47.1979 446.88 44.8337 446.772 41.6018L446.642 37.2204C446.447 32.3401 446.273 27.3297 446.295 22.3626C446.295 21.1696 446.316 19.9333 446.316 18.7186L466.77 30.9086C467.226 31.1905 467.725 31.3857 468.202 31.6026L468.592 31.7545C469.156 31.9931 469.699 32.1015 470.306 32.1015C471.065 32.1015 471.824 31.8846 472.497 31.4942L494.208 18.6753C494.208 19.8899 494.23 21.1263 494.252 22.3409C494.252 27.308 494.1 32.3184 493.905 37.1987L493.753 41.5801C493.666 44.812 494.924 47.1762 497.549 48.6295C504.208 52.2734 510.823 56.0042 517.46 59.7132L518.024 60.0168H517.981Z" fill="black" fill-opacity="0.04"/>
<path d="M489.415 205.992L470.132 217.379C463.755 213.584 457.356 209.788 450.979 205.97C457.031 202.392 463.061 198.791 469.091 195.234L470.219 194.561L472.366 195.754C475.489 197.533 478.7 199.333 481.78 201.199C484.317 202.717 486.877 204.365 489.393 205.97L489.415 205.992Z" fill="black" fill-opacity="0.04"/>
<path d="M489.306 108.69C484.252 111.705 479.177 114.763 474.079 117.821L470.262 120.077L451.109 108.755L470.218 97.1939L489.262 108.69H489.306Z" fill="black" fill-opacity="0.04"/>
<path d="M438.095 175.973V176.971C438.095 179.031 438.095 181.07 438.074 183.131C438.03 186.471 437.987 189.833 437.922 193.195V194.626C437.879 195.798 437.879 197.012 437.857 198.184C436.339 197.381 434.799 196.557 433.302 195.711C429.419 193.585 425.558 191.416 421.719 189.247L418.162 187.23L418.618 164.998L438.117 175.973H438.095Z" fill="black" fill-opacity="0.04"/>
<path d="M437.705 116.433V138.861L418.661 149.511V127.083C419.03 126.866 419.399 126.671 419.767 126.454L437.705 116.433Z" fill="black" fill-opacity="0.04"/>
<path d="M437.705 78.3885V100.86L418.553 90.253V67.8687L437.705 78.3885Z" fill="black" fill-opacity="0.04"/>
<path d="M433.909 205.905L412.132 218.052C410.744 218.811 409.898 220.264 409.898 221.848V247.442L408.748 246.748C404.887 244.406 401.026 242.085 397.187 239.742C395.127 238.527 393.088 237.291 391.006 236.076L388.208 234.428C386.841 233.647 385.149 233.647 383.804 234.45L379.011 237.291C375.497 239.395 371.983 241.477 368.491 243.581C366.387 244.861 364.262 246.141 362.158 247.442V221.848C362.158 220.286 361.312 218.833 359.945 218.052L338.146 205.905C339.73 205.059 341.357 204.192 342.94 203.324C347.126 200.982 351.269 198.661 355.195 196.47L359.815 193.867C361.182 193.108 362.027 191.655 362.027 190.093C362.027 181.287 362.027 172.849 362.006 164.455L383.804 177.426C384.477 177.838 385.236 178.055 386.017 178.055C386.798 178.055 387.557 177.838 388.229 177.426L409.985 164.499L409.464 189.659C409.442 191.243 410.288 192.739 411.676 193.52L417.251 196.665C421.198 198.878 425.168 201.09 429.137 203.324C430.72 204.192 432.347 205.059 433.931 205.905H433.909Z" fill="black" fill-opacity="0.04"/>
<path d="M433.887 108.646L415.559 118.906C414.8 119.318 414.041 119.73 413.195 120.207L412.262 120.706C410.874 121.465 410.006 122.919 410.006 124.502V150.183C409.811 150.075 409.594 149.966 409.399 149.858L408.011 149.034C402.046 145.52 395.886 141.897 389.856 138.102C387.275 136.518 384.607 136.54 381.961 138.145L370.378 145.216C367.58 146.908 364.782 148.6 362.006 150.313V124.502C362.006 122.94 361.138 121.487 359.772 120.706L338.125 108.646L359.902 96.5866C361.268 95.8274 362.114 94.3742 362.114 92.7908V67.3915C364.934 69.0183 367.732 70.6451 370.552 72.2935C373.632 74.0938 376.69 75.9158 379.814 77.7595L383.805 80.1454C384.477 80.5358 385.236 80.7744 386.017 80.7744C386.798 80.7744 387.557 80.5358 388.229 80.1454L393.175 77.1955C396.819 75.0265 400.398 72.8792 404.02 70.7535C405.95 69.6256 407.924 68.5194 409.876 67.3915V92.8125C409.876 94.3742 410.722 95.8274 412.089 96.6083L433.866 108.668L433.887 108.646Z" fill="black" fill-opacity="0.04"/>
<path d="M405.127 60.1253C403.305 61.1664 401.461 62.2293 399.639 63.2921C395.952 65.4611 392.243 67.6735 388.512 69.8859L386.018 71.3825L384.239 70.3197C381.094 68.4544 378.014 66.6324 374.912 64.8104C372.244 63.2487 369.533 61.6653 366.822 60.1253C368.861 58.889 370.878 57.6526 372.917 56.438C376.452 54.3123 379.988 52.2084 383.61 50.0394L385.996 48.6295L386.582 48.9765C388.664 50.1695 390.681 51.3841 392.698 52.5988C396.863 55.0932 401.006 57.6092 405.148 60.1253H405.127Z" fill="black" fill-opacity="0.04"/>
<path d="M405.061 157.319L385.995 168.685L367.016 157.363C368.947 156.191 370.92 154.998 372.851 153.827L385.952 145.867C391.808 149.511 397.816 153.046 403.608 156.473L404.996 157.298C404.996 157.298 405.039 157.319 405.061 157.319Z" fill="black" fill-opacity="0.04"/>
<path d="M353.46 224.385V246.9L352.831 246.553C346.519 243.017 340.25 239.482 333.895 235.99L334.025 232.02C334.22 227.075 334.394 221.978 334.372 216.881C334.372 215.839 334.351 214.777 334.351 213.736L353.438 224.385H353.46Z" fill="black" fill-opacity="0.04"/>
<path d="M353.46 67.6952V90.253L334.286 100.86V78.4535L335.522 77.7595C338.234 76.2628 341.097 74.6578 343.938 73.0744C347.127 71.2958 350.294 69.4955 353.46 67.6952Z" fill="black" fill-opacity="0.04"/>
<path d="M353.46 29.8241V52.3169L352.332 51.6878C346.215 48.2391 340.077 44.8337 333.895 41.4067C333.982 37.8061 334.025 34.2272 334.112 30.6266L334.242 21.5601C334.264 20.7576 334.264 19.9333 334.264 19.1308L353.46 29.8241Z" fill="black" fill-opacity="0.04"/>
<path d="M353.33 127.018V149.489L334.286 138.839V116.433L353.33 127.018Z" fill="black" fill-opacity="0.04"/>
<path d="M353.309 165.084C353.331 172.459 353.331 179.877 353.331 187.555L350.901 188.922C346.975 191.113 342.833 193.455 338.69 195.733C337.193 196.579 335.675 197.403 334.135 198.205C334.113 197.034 334.091 195.819 334.091 194.648V193.217C334.005 189.855 333.961 186.493 333.896 183.152C333.853 180.962 333.875 178.771 333.875 176.558V175.995L353.287 165.106L353.309 165.084Z" fill="black" fill-opacity="0.04"/>
<path d="M349.512 157.276L327.453 169.683C326.086 170.442 325.24 171.895 325.24 173.457V176.537C325.24 178.793 325.219 181.048 325.262 183.282C325.306 186.644 325.349 190.006 325.414 193.368V194.843C325.457 196.123 325.457 197.403 325.479 198.683C322.941 197.056 320.36 195.407 317.736 193.824C314.525 191.893 311.272 190.028 308.105 188.25C306.674 187.447 305.242 186.623 303.811 185.82C302.466 185.039 300.796 185.039 299.451 185.842L294.18 188.965C288.801 192.154 283.378 195.364 277.977 198.574C277.999 197.338 278.021 196.058 278.043 194.8V193.347C278.108 189.985 278.173 186.623 278.238 183.261C278.259 181.027 278.259 178.749 278.238 176.515V173.435C278.238 171.873 277.392 170.442 276.025 169.661L254.01 157.232L275.613 145.151C276.98 144.392 277.826 142.939 277.826 141.355V115.978L299.538 128.818C300.21 129.209 300.969 129.426 301.728 129.426C302.487 129.426 303.268 129.209 303.962 128.797L312.4 123.764C316.803 121.14 321.206 118.494 325.609 115.869V141.355C325.609 142.917 326.455 144.37 327.822 145.151L349.49 157.254L349.512 157.276Z" fill="black" fill-opacity="0.04"/>
<path d="M349.47 60.0169L349.318 60.1036C346.129 61.9256 342.919 63.7259 339.731 65.5262C336.976 67.0662 334.221 68.6062 331.575 70.0594L327.866 72.1417C326.5 72.9009 325.654 74.3324 325.654 75.9158V101.532L304.007 88.4311C302.619 87.6068 300.884 87.6068 299.517 88.4311L277.849 101.532V75.8724C277.849 74.289 277.003 72.8141 275.614 72.0549L253.881 60.1253L254.315 59.865C261.017 56.0909 267.741 52.3602 274.465 48.6512C277.068 47.1979 278.347 44.8337 278.261 41.6019L278.109 37.1554C277.914 32.3401 277.74 27.308 277.762 22.3843C277.762 21.1914 277.783 19.955 277.805 18.7404L298.237 30.9303C298.693 31.2122 299.192 31.4074 299.669 31.6244L300.059 31.7762C300.623 32.0148 301.187 32.1232 301.773 32.1232C302.554 32.1232 303.291 31.9063 303.985 31.5159L325.632 18.7404C325.61 19.6513 325.61 20.519 325.589 21.4083L325.459 30.0193C325.415 33.9669 325.35 37.9145 325.22 41.8621C325.155 44.8554 326.435 47.1979 329.016 48.6078C335.696 52.2951 342.334 56.0259 348.993 59.7566L349.47 60.0169Z" fill="black" fill-opacity="0.04"/>
<path d="M320.925 205.992L301.642 217.379C295.244 213.584 288.867 209.788 282.468 205.97C288.889 202.153 295.309 198.357 301.708 194.561L303.877 195.776C306.978 197.533 310.188 199.333 313.268 201.199C315.85 202.739 318.387 204.387 320.903 205.97L320.925 205.992Z" fill="black" fill-opacity="0.04"/>
<path d="M320.795 108.69C315.936 111.575 311.099 114.481 306.241 117.388L301.729 120.055L282.577 108.733L301.729 97.1722L320.773 108.668L320.795 108.69Z" fill="black" fill-opacity="0.04"/>
<path d="M269.584 176.537C269.606 178.749 269.606 180.94 269.584 183.131C269.541 186.471 269.476 189.833 269.432 193.195V194.626C269.389 195.798 269.367 197.012 269.346 198.184C267.827 197.381 266.287 196.557 264.791 195.711C260.821 193.52 256.874 191.308 252.926 189.074L249.651 187.23L250.106 164.998L269.606 175.973V176.537H269.584Z" fill="black" fill-opacity="0.04"/>
<path d="M269.453 37.459L269.584 41.4283C263.077 45.0289 256.591 48.6729 250.062 52.2951H250.019V29.8241L269.128 19.1525C269.106 20.2153 269.085 21.2564 269.085 22.3192C269.063 27.4164 269.237 32.5353 269.432 37.4373L269.453 37.459Z" fill="black" fill-opacity="0.04"/>
<path d="M269.453 231.999L269.584 235.99C263.25 239.482 256.96 243.017 250.648 246.509L250.019 246.878V224.364L269.128 213.714C269.106 214.755 269.085 215.818 269.085 216.859C269.063 221.956 269.237 227.075 269.432 231.977L269.453 231.999Z" fill="black" fill-opacity="0.04"/>
<path d="M269.193 116.433V138.839L250.171 149.489V127.04L269.193 116.433Z" fill="black" fill-opacity="0.04"/>
<path d="M269.193 78.3885V100.86L250.019 90.253V67.8687L269.193 78.3885Z" fill="black" fill-opacity="0.04"/>
<path d="M265.376 205.905L243.599 218.052C242.211 218.811 241.365 220.264 241.365 221.848V247.464L240.324 246.813C236.441 244.449 232.537 242.106 228.633 239.742C226.681 238.571 224.663 237.378 222.494 236.12L219.653 234.428C218.287 233.647 216.595 233.647 215.25 234.45L210.5 237.269C206.964 239.373 203.45 241.477 199.937 243.581C197.811 244.861 195.707 246.141 193.581 247.442V221.848C193.581 220.286 192.735 218.833 191.369 218.052L169.57 205.905C171.197 205.059 172.78 204.192 174.364 203.324C178.507 201.047 182.584 198.726 186.489 196.535L191.239 193.867C192.605 193.108 193.451 191.655 193.451 190.093V164.455L215.228 177.426C215.901 177.838 216.681 178.055 217.462 178.055C218.243 178.055 219.002 177.838 219.675 177.426L241.43 164.499L240.909 189.659C240.866 191.243 241.712 192.761 243.1 193.52L247.785 196.145C252.037 198.531 256.288 200.917 260.561 203.303C262.144 204.17 263.771 205.038 265.354 205.884L265.376 205.905Z" fill="black" fill-opacity="0.04"/>
<path d="M265.354 108.646L250.605 116.867C249.043 117.735 247.438 118.646 245.898 119.491L243.707 120.728C242.341 121.487 241.517 122.919 241.517 124.502V150.161C241.3 150.053 241.104 149.945 240.888 149.836L239.239 148.86C233.318 145.368 227.223 141.767 221.345 138.08C218.785 136.497 216.117 136.518 213.449 138.123L193.473 150.292V124.48C193.473 122.919 192.627 121.465 191.26 120.684L169.592 108.625L191.369 96.5649C192.757 95.8057 193.581 94.3525 193.581 92.7691V67.3698C196.401 68.9966 199.221 70.6234 202.019 72.2718C205.099 74.0721 208.157 75.8941 211.28 77.7378L215.271 80.1237C215.944 80.5141 216.703 80.7527 217.484 80.7527C218.265 80.7527 219.024 80.5141 219.696 80.1237L224.663 77.1738C228.286 75.0048 231.886 72.8575 235.487 70.7318C237.417 69.6039 239.391 68.4977 241.343 67.3698V92.7908C241.343 94.3525 242.189 95.8057 243.577 96.5866L265.332 108.646H265.354Z" fill="black" fill-opacity="0.04"/>
<path d="M224.187 52.5988C228.33 55.0932 232.473 57.6092 236.615 60.1253C234.794 61.1664 232.95 62.2293 231.15 63.2921C227.441 65.4611 223.732 67.6735 220.022 69.8859L217.506 71.3825L215.728 70.3197C212.583 68.4544 209.524 66.6324 206.401 64.8104C203.733 63.2487 201.022 61.6653 198.311 60.1253C200.349 58.889 202.367 57.6526 204.406 56.438C207.464 54.616 210.5 52.794 213.58 50.972L217.506 48.6295L218.135 48.9982C220.196 50.1912 222.191 51.4058 224.209 52.5988H224.187Z" fill="black" fill-opacity="0.04"/>
<path d="M236.615 254.665C234.794 255.728 232.95 256.769 231.128 257.832C227.549 259.957 223.948 262.105 220.348 264.252L217.506 265.944L215.489 264.773C212.431 262.951 209.416 261.15 206.401 259.393C203.733 257.81 201.022 256.248 198.311 254.708C200.349 253.472 202.367 252.214 204.406 250.999C207.594 249.112 210.782 247.204 213.971 245.295L217.506 243.213L218.135 243.581C220.196 244.774 222.191 245.967 224.209 247.182C228.373 249.676 232.494 252.171 236.637 254.687L236.615 254.665Z" fill="black" fill-opacity="0.04"/>
<path d="M236.571 157.319L217.506 168.685L198.505 157.363C201.238 155.714 203.927 154.087 206.639 152.417L217.44 145.867C223.167 149.424 229.045 152.894 234.728 156.256L236.484 157.298C236.484 157.298 236.55 157.319 236.571 157.319Z" fill="black" fill-opacity="0.04"/>
<path d="M184.927 224.385V246.9L184.081 246.423C177.878 242.931 171.631 239.438 165.384 236.011L165.514 232.085C165.71 227.14 165.883 222.021 165.861 216.902C165.861 215.861 165.84 214.798 165.84 213.757L184.927 224.407V224.385Z" fill="black" fill-opacity="0.04"/>
<path d="M184.927 67.6952V90.253L165.753 100.86V78.4535L166.989 77.7595C169.722 76.2628 172.564 74.6578 175.427 73.0744C178.594 71.2958 181.76 69.4955 184.927 67.6952Z" fill="black" fill-opacity="0.04"/>
<path d="M184.927 29.8241V52.3168L184.602 52.1216C178.203 48.5427 171.805 44.9638 165.363 41.4066L165.493 37.4807C165.688 32.5353 165.862 27.4381 165.84 22.3192C165.84 21.2564 165.818 20.2153 165.818 19.1525L184.906 29.8241H184.927Z" fill="black" fill-opacity="0.04"/>
<path d="M184.819 186.015V187.534L182.585 188.77C178.616 191.004 174.408 193.368 170.2 195.689C168.681 196.535 167.141 197.359 165.623 198.162C165.601 196.991 165.601 195.776 165.58 194.605V193.173C165.493 189.811 165.45 186.449 165.384 183.109C165.363 180.918 165.363 178.727 165.363 176.515V175.951L184.797 165.063V186.015H184.819Z" fill="black" fill-opacity="0.04"/>
<path d="M184.819 127.018V149.489L165.775 138.839V116.433L184.819 127.018Z" fill="black" fill-opacity="0.04"/>
<path d="M152.392 205.992L133.197 217.314L113.979 205.949C120.009 202.37 126.039 198.791 132.069 195.234L133.197 194.561C133.934 194.973 134.693 195.407 135.474 195.863C138.554 197.598 141.699 199.398 144.757 201.22C147.295 202.739 149.833 204.387 152.371 205.992H152.392Z" fill="black" fill-opacity="0.04"/>
<path d="M133.239 97.1939L152.283 108.69C147.208 111.705 142.154 114.763 137.035 117.821L133.218 120.077L114.087 108.755L133.239 97.1939Z" fill="black" fill-opacity="0.04"/>
</g>
<defs>
<clipPath id="clip0_481_2315">
<rect width="661.14" height="265.944" fill="white" transform="translate(0 145)"/>
</clipPath>
<clipPath id="clip1_481_2315">
<rect width="661.14" height="265.944" fill="white" transform="translate(114)"/>
</clipPath>
</defs>
</svg>
