<?xml version="1.0" encoding="UTF-8" standalone="no"?>
<svg
   id="Layer_1"
   data-name="Layer 1"
   viewBox="0 0 128 128"
   version="1.1"
   sodipodi:docname="f-icon.svg"
   width="128"
   height="128"
   inkscape:version="1.1.2 (0a00cf5339, 2022-02-04)"
   xmlns:inkscape="http://www.inkscape.org/namespaces/inkscape"
   xmlns:sodipodi="http://sodipodi.sourceforge.net/DTD/sodipodi-0.dtd"
   xmlns="http://www.w3.org/2000/svg"
   xmlns:svg="http://www.w3.org/2000/svg"
   xmlns:rdf="http://www.w3.org/1999/02/22-rdf-syntax-ns#"
   xmlns:cc="http://creativecommons.org/ns#"
   xmlns:dc="http://purl.org/dc/elements/1.1/">
  <sodipodi:namedview
     id="namedview11"
     pagecolor="#ffffff"
     bordercolor="#666666"
     borderopacity="1.0"
     inkscape:pageshadow="2"
     inkscape:pageopacity="0.0"
     inkscape:pagecheckerboard="0"
     showgrid="false"
     width="128px"
     inkscape:zoom="4.8258465"
     inkscape:cx="37.713591"
     inkscape:cy="61.33639"
     inkscape:window-width="1920"
     inkscape:window-height="1056"
     inkscape:window-x="1440"
     inkscape:window-y="0"
     inkscape:window-maximized="1"
     inkscape:current-layer="Layer_1" />
  <defs
     id="defs4">
    <style
       id="style2">.cls-1{fill-rule:evenodd;}</style>
  </defs>
  <title
     id="title6">hijab</title>
  <path
     class="cls-1"
     d="m 26.721344,38.879433 c 9.79,-49.89 68.75,-48.24 76.650006,4.08 2.18,14.51 -1.48,22.32 0.51,36.56 1.27,9.08 4.28,15.84 7.16,22.829997 a 117,117 0 0 1 -46.180006,10 q -23.49,0 -47,-10.32 c 3.3,-7.609997 6.64,-14.999997 7.28,-18.699997 3.05,-17.46 -1.71,-27.47 1.62,-44.43 z m 10.68,7.41 a 1.42,1.42 0 0 1 -0.29,0.1 c 5.75,60.899997 48.84,58.699997 53.81,0 a 1.18,1.18 0 0 1 -0.3,-0.1 61.83,61.83 0 0 0 -26.61,-6.38 60.36,60.36 0 0 0 -26.61,6.38 z m -0.5,-2.41 a 62.53,62.53 0 0 1 27.11,-6.32 63.83,63.83 0 0 1 27.1,6.36 l 0.06,-0.87 c -14,-17.05 -40.11,-17 -54.34,-0.05 0,0.31 0.05,0.61 0.07,0.92 z m 75.860006,62.759997 a 68.73,68.73 0 0 1 4.62,18.8 H 12.381344 c -3.9399993,0 -0.63,-9.17 3.61,-19.18 a 119.61,119.61 0 0 0 48.87,10.68 121.37,121.37 0 0 0 47.900006,-10.3 z"
     id="path8" />
  <metadata
     id="metadata13">
    <rdf:RDF>
      <cc:Work
         rdf:about="">
        <dc:title>hijab</dc:title>
      </cc:Work>
    </rdf:RDF>
  </metadata>
</svg>
