<svg id="Layer_1" data-name="Layer 1" xmlns="http://www.w3.org/2000/svg" viewBox="0 0 106.76 122.88"><defs><style>.cls-1{fill-rule:evenodd;}</style></defs><title>hijab</title><path class="cls-1" d="M16.1,36.32c9.79-49.89,68.75-48.24,76.65,4.08,2.18,14.51-1.48,22.32.51,36.56,1.27,9.08,4.28,15.84,7.16,22.83a117,117,0,0,1-46.18,10q-23.49,0-47-10.32c3.3-7.61,6.64-15,7.28-18.7,3.05-17.46-1.71-27.47,1.62-44.43Zm10.68,7.41a1.42,1.42,0,0,1-.29.1c5.75,60.9,48.84,58.7,53.81,0a1.18,1.18,0,0,1-.3-.1,61.83,61.83,0,0,0-26.61-6.38,60.36,60.36,0,0,0-26.61,6.38Zm-.5-2.41A62.53,62.53,0,0,1,53.39,35a63.83,63.83,0,0,1,27.1,6.36l.06-.87c-14-17.05-40.11-17-54.34-.05,0,.31.05.61.07.92Zm75.86,62.76a68.73,68.73,0,0,1,4.62,18.8H1.76c-3.94,0-.63-9.17,3.61-19.18a119.61,119.61,0,0,0,48.87,10.68,121.37,121.37,0,0,0,47.9-10.3Z"/></svg>