<svg width="870" height="480" viewBox="0 0 870 480" fill="none" xmlns="http://www.w3.org/2000/svg">
<g clip-path="url(#clip0_415_2223)">
<path fill-rule="evenodd" clip-rule="evenodd" d="M870 0H0V480H870V0ZM317.723 15C309.479 15 302.796 21.6849 302.796 29.9311V128.05C302.796 136.296 309.479 142.981 317.723 142.981H543.748C551.992 142.981 558.674 136.296 558.674 128.05V29.9311C558.674 21.6849 551.992 15 543.748 15H317.723ZM566.137 29.9311C566.137 21.6849 572.82 15 581.064 15H679.15C687.394 15 694.076 21.6849 694.076 29.9311V128.05C694.076 136.296 687.394 142.981 679.15 142.981H581.064C572.82 142.981 566.137 136.296 566.137 128.05V29.9311ZM716.466 15C708.222 15 701.539 21.6849 701.539 29.9311V449.069C701.539 457.315 708.222 464 716.466 464H839.074C847.317 464 854 457.315 854 449.069V29.9311C854 21.6849 847.317 15 839.074 15H716.466ZM302.796 300.824C302.796 292.578 309.479 285.893 317.723 285.893H543.748C551.992 285.893 558.674 292.578 558.674 300.824V398.943C558.674 407.189 551.992 413.874 543.748 413.874H317.723C309.479 413.874 302.796 407.189 302.796 398.943V300.824ZM211.107 300.824C211.107 292.578 217.79 285.893 226.033 285.893H280.407C288.651 285.893 295.333 292.578 295.333 300.824V320.021C295.333 328.268 288.651 334.952 280.407 334.952H226.033C217.79 334.952 211.107 328.268 211.107 320.021V300.824ZM174.858 165.378C174.858 157.131 181.54 150.447 189.784 150.447H543.748C551.992 150.447 558.674 157.131 558.674 165.378V263.496C558.674 271.743 551.992 278.428 543.748 278.428H189.784C181.54 278.428 174.858 271.743 174.858 263.496V165.378ZM16 165.378C16 157.131 22.6827 150.447 30.9262 150.447H152.468C160.712 150.447 167.394 157.131 167.394 165.378V263.496C167.394 271.743 160.712 278.428 152.468 278.428H30.9262C22.6827 278.428 16 271.743 16 263.496V165.378ZM116.219 72.5914C116.219 64.3452 122.902 57.6603 131.145 57.6603H280.407C288.651 57.6603 295.333 64.3452 295.333 72.5914V128.05C295.333 136.296 288.651 142.981 280.407 142.981H131.145C122.902 142.981 116.219 136.296 116.219 128.05V72.5914ZM566.137 165.378C566.137 157.131 572.82 150.447 581.064 150.447H679.15C687.394 150.447 694.076 157.131 694.076 165.378V263.496C694.076 271.743 687.394 278.428 679.15 278.428H581.064C572.82 278.428 566.137 271.743 566.137 263.496V165.378ZM566.137 300.824C566.137 292.578 572.82 285.893 581.064 285.893H679.15C687.394 285.893 694.076 292.578 694.076 300.824V398.943C694.076 407.189 687.394 413.874 679.15 413.874H581.064C572.82 413.874 566.137 407.189 566.137 398.943V300.824ZM566.137 435.204C566.137 427.547 572.343 421.34 579.997 421.34H680.216C687.871 421.34 694.076 427.547 694.076 435.204V450.135C694.076 457.793 687.871 464 680.216 464H579.997C572.343 464 566.137 457.793 566.137 450.135V435.204Z" fill="white"/>
</g>
<defs>
<clipPath id="clip0_415_2223">
<rect width="870" height="480" fill="white"/>
</clipPath>
</defs>
</svg>
