<svg width="3364" height="800" viewBox="0 0 3364 800" fill="none" xmlns="http://www.w3.org/2000/svg">
<path fill-rule="evenodd" clip-rule="evenodd" d="M475.5 218.315C471.009 218.956 466.408 219.25 461.727 219.17C414.287 218.36 376.495 179.458 377.307 132.282C377.666 111.509 385.454 92.5954 398.103 78C357.094 83.8492 325.247 118.579 324.513 161.099C323.698 208.275 361.493 247.176 408.927 247.987C435.477 248.441 459.42 236.867 475.5 218.315Z" fill="#2D6974"/>
<path d="M192.37 580C192.37 580 187.038 530.817 192.37 500C211.222 391.044 400.001 300 400.001 300C400.001 300 588.779 391.044 607.631 500C612.962 530.817 607.631 580 607.631 580" stroke="#2D6974" stroke-width="60.1043"/>
<path d="M169.987 632H326.118C326.118 632 377.483 632 399.502 661.663C421.516 632 472.884 632 472.884 632H630.013L650 692.337H487.558C487.558 692.337 458.205 692.337 443.53 722C414.176 722 384.823 722 355.471 722C340.794 692.337 311.441 692.337 311.441 692.337H150L169.987 632Z" fill="#2D6974"/>
<path d="M1013.26 406.486C1042.58 423.375 1057.24 448.869 1057.24 482.966C1057.24 511.327 1047.2 534.59 1027.13 552.754C1007.05 570.918 982.353 580 953.036 580H811.07V245.4H942.998C971.678 245.4 995.737 254.323 1015.18 272.168C1034.93 289.695 1044.81 312.161 1044.81 339.566C1044.81 367.29 1034.3 389.597 1013.26 406.486ZM942.998 307.062H877.034V380.674H942.998C953.195 380.674 961.64 377.169 968.332 370.158C975.343 363.147 978.848 354.384 978.848 343.868C978.848 333.352 975.502 324.589 968.81 317.578C962.118 310.567 953.514 307.062 942.998 307.062ZM953.036 518.338C964.189 518.338 973.431 514.673 980.76 507.344C988.089 499.696 991.754 490.136 991.754 478.664C991.754 467.511 988.089 458.269 980.76 450.94C973.431 443.292 964.189 439.468 953.036 439.468H877.034V518.338H953.036ZM1241.37 341H1303.03V580H1241.37V553.232C1226.39 575.539 1202.65 586.692 1170.15 586.692C1144.02 586.692 1122.35 577.929 1105.14 560.402C1088.25 542.875 1079.81 518.657 1079.81 487.746V341H1141.47V480.098C1141.47 496.031 1145.77 508.3 1154.37 516.904C1162.98 525.189 1174.45 529.332 1188.79 529.332C1204.72 529.332 1217.47 524.393 1227.03 514.514C1236.59 504.635 1241.37 489.817 1241.37 470.06V341ZM1551.19 580H1479.49L1392.49 471.494V580H1330.83V245.4H1392.49V446.16L1474.71 341H1548.32L1452.24 459.066L1551.19 580ZM1716.03 341H1777.69V580H1716.03V553.232C1701.05 575.539 1677.31 586.692 1644.81 586.692C1618.68 586.692 1597.01 577.929 1579.8 560.402C1562.91 542.875 1554.46 518.657 1554.46 487.746V341H1616.13V480.098C1616.13 496.031 1620.43 508.3 1629.03 516.904C1637.64 525.189 1649.11 529.332 1663.45 529.332C1679.38 529.332 1692.13 524.393 1701.69 514.514C1711.25 504.635 1716.03 489.817 1716.03 470.06V341ZM2226.6 245.4V580H2161.12V362.988L2066.95 518.338H2059.3L1965.14 363.466V580H1899.17V245.4H1967.05L2063.13 403.618L2158.73 245.4H2226.6ZM2439.04 341H2500.7V580H2439.04V551.798C2420.56 575.061 2394.59 586.692 2361.13 586.692C2329.26 586.692 2301.85 574.583 2278.91 550.364C2256.29 525.827 2244.97 495.872 2244.97 460.5C2244.97 425.128 2256.29 395.333 2278.91 371.114C2301.85 346.577 2329.26 334.308 2361.13 334.308C2394.59 334.308 2420.56 345.939 2439.04 369.202V341ZM2325.28 509.256C2337.7 521.684 2353.48 527.898 2372.6 527.898C2391.72 527.898 2407.49 521.684 2419.92 509.256C2432.67 496.509 2439.04 480.257 2439.04 460.5C2439.04 440.743 2432.67 424.65 2419.92 412.222C2407.49 399.475 2391.72 393.102 2372.6 393.102C2353.48 393.102 2337.7 399.475 2325.28 412.222C2312.85 424.65 2306.63 440.743 2306.63 460.5C2306.63 480.257 2312.85 496.509 2325.28 509.256ZM2597.29 408.876C2597.29 415.249 2601.44 420.507 2609.72 424.65C2618.32 428.474 2628.68 431.979 2640.79 435.166C2652.9 438.034 2665.01 441.858 2677.12 446.638C2689.23 451.099 2699.43 458.747 2707.71 469.582C2716.31 480.417 2720.62 493.96 2720.62 510.212C2720.62 534.749 2711.38 553.71 2692.89 567.094C2674.73 580.159 2651.94 586.692 2624.54 586.692C2575.46 586.692 2542 567.731 2524.16 529.81L2577.69 499.696C2584.71 520.409 2600.32 530.766 2624.54 530.766C2646.53 530.766 2657.52 523.915 2657.52 510.212C2657.52 503.839 2653.22 498.74 2644.61 494.916C2636.33 490.773 2626.13 487.109 2614.02 483.922C2601.91 480.735 2589.8 476.752 2577.69 471.972C2565.59 467.192 2555.23 459.703 2546.62 449.506C2538.34 438.99 2534.2 425.925 2534.2 410.31C2534.2 386.729 2542.8 368.246 2560.01 354.862C2577.54 341.159 2599.2 334.308 2625.02 334.308C2644.46 334.308 2662.14 338.769 2678.07 347.692C2694.01 356.296 2706.6 368.724 2715.84 384.976L2663.26 413.656C2655.61 397.404 2642.86 389.278 2625.02 389.278C2617.05 389.278 2610.36 391.031 2604.94 394.536C2599.84 398.041 2597.29 402.821 2597.29 408.876ZM2778.13 312.32C2767.61 312.32 2758.53 308.655 2750.88 301.326C2743.55 293.678 2739.89 284.755 2739.89 274.558C2739.89 264.361 2743.55 255.438 2750.88 247.79C2758.53 240.142 2767.61 236.318 2778.13 236.318C2788.32 236.318 2797.09 240.142 2804.42 247.79C2812.06 255.438 2815.89 264.361 2815.89 274.558C2815.89 284.755 2812.06 293.678 2804.42 301.326C2797.09 308.655 2788.32 312.32 2778.13 312.32ZM2747.06 584.78V341H2808.72V584.78C2808.72 619.833 2800.11 645.327 2782.91 661.26C2766.02 677.512 2739.89 684.523 2704.51 682.292V623.02C2719.17 623.976 2729.85 621.427 2736.54 615.372C2743.55 609.317 2747.06 599.12 2747.06 584.78ZM2871.66 312.32C2861.46 312.32 2852.54 308.655 2844.89 301.326C2837.56 293.678 2833.9 284.755 2833.9 274.558C2833.9 264.361 2837.56 255.438 2844.89 247.79C2852.54 240.142 2861.46 236.318 2871.66 236.318C2882.17 236.318 2891.1 240.142 2898.43 247.79C2906.07 255.438 2909.9 264.361 2909.9 274.558C2909.9 284.755 2906.07 293.678 2898.43 301.326C2891.1 308.655 2882.17 312.32 2871.66 312.32ZM2841.07 580V341H2902.73V580H2841.07ZM3125.99 245.4H3187.65V580H3125.99V551.798C3107.82 575.061 3082.01 586.692 3048.55 586.692C3016.37 586.692 2988.8 574.583 2965.86 550.364C2943.23 525.827 2931.92 495.872 2931.92 460.5C2931.92 425.128 2943.23 395.333 2965.86 371.114C2988.8 346.577 3016.37 334.308 3048.55 334.308C3082.01 334.308 3107.82 345.939 3125.99 369.202V245.4ZM3012.22 509.256C3024.97 521.684 3040.9 527.898 3060.02 527.898C3079.14 527.898 3094.92 521.684 3107.34 509.256C3119.77 496.509 3125.99 480.257 3125.99 460.5C3125.99 440.743 3119.77 424.65 3107.34 412.222C3094.92 399.475 3079.14 393.102 3060.02 393.102C3040.9 393.102 3024.97 399.475 3012.22 412.222C2999.79 424.65 2993.58 440.743 2993.58 460.5C2993.58 480.257 2999.79 496.509 3012.22 509.256Z" fill="#2D6974"/>
</svg>
