<?xml version="1.0" encoding="UTF-8"?>
<svg width="800" height="800" fill="none" version="1.1" viewBox="0 0 800 800" xmlns="http://www.w3.org/2000/svg">
 <g transform="matrix(1.1596 0 0 1.1596 -63.854 -63.854)" clip-path="url(#clip0_266_1821)">
  <path d="m475.5 218.32c-4.491 0.641-9.092 0.935-13.773 0.855-47.44-0.81-85.232-39.712-84.42-86.888 0.359-20.773 8.147-39.687 20.796-54.282-41.009 5.8492-72.856 40.579-73.59 83.099-0.815 47.176 36.98 86.077 84.414 86.888 26.55 0.454 50.493-11.12 66.573-29.672z" clip-rule="evenodd" fill="#2d6974" fill-rule="evenodd"/>
  <path d="m192.37 580s-5.332-49.183 0-80c18.852-108.96 207.63-200 207.63-200s188.78 91.044 207.63 200c5.331 30.817 0 80 0 80" stroke="#2d6974" stroke-width="60.104"/>
  <path d="m169.99 632h156.13s51.365 0 73.384 29.663c22.014-29.663 73.382-29.663 73.382-29.663h157.13l19.987 60.337h-162.44s-29.353 0-44.028 29.663h-88.059c-14.677-29.663-44.03-29.663-44.03-29.663h-161.44z" fill="#2d6974"/>
 </g>
 <defs>
  <clipPath id="clip0_266_1821">
   <rect width="800" height="800" fill="#fff"/>
  </clipPath>
 </defs>
</svg>
