<svg width="86" height="109" viewBox="0 0 86 109" fill="none" xmlns="http://www.w3.org/2000/svg">
<path d="M0 93.7298H30.1971C30.1971 93.7298 39.0042 93.7298 42.7795 98.7627C46.554 93.7298 55.3615 93.7298 55.3615 93.7298H85.5585V103.967H57.8776C57.8776 103.967 52.8447 103.967 50.3286 109C45.2956 109 40.2626 109 35.2299 109C32.7135 103.967 27.6806 103.967 27.6806 103.967H0V93.7298Z" fill="#2D6974"/>
<path fill-rule="evenodd" clip-rule="evenodd" d="M55.5717 24.0433C54.8022 24.1532 54.0139 24.2036 53.2116 24.1899C45.0827 24.0511 38.607 17.3852 38.746 9.30135C38.8076 5.74183 40.1421 2.50096 42.3096 0C35.2825 1.00228 29.8255 6.95335 29.6997 14.2392C29.5601 22.323 36.0364 28.9888 44.1643 29.1277C48.7138 29.2054 52.8164 27.2222 55.5717 24.0433Z" fill="#2D6974"/>
<path d="M7.01824 88.559C7.01824 88.559 6.10297 79.9658 7.01824 74.5816C10.2542 55.5451 42.6581 39.6382 42.6581 39.6382C42.6581 39.6382 75.0618 55.5451 78.2977 74.5816C79.2128 79.9658 78.2977 88.559 78.2977 88.559" stroke="#2D6974" stroke-width="10.299"/>
</svg>
