<svg xmlns="http://www.w3.org/2000/svg" shape-rendering="geometricPrecision" text-rendering="geometricPrecision" image-rendering="optimizeQuality" fill-rule="evenodd" clip-rule="evenodd" viewBox="0 0 512 481.769"><path d="M115.202 88.437c64.862-80.147 139.613-123.73 195.75-52.435 64.323 3.378 89.361 101.747 45.161 150.305 7.745 1.469 13.845 6.6 16.332 14.277 1.567 4.877 1.694 10.898-.245 18.066l-7.813 22.228c-1.606 4.563-3.173 7.843-6.845 10.751-2.957 2.35-6.228 3.574-10.517 3.849-2.163 22.266-14.041 33.557-29.218 47.833 17.635 32.617 54.629 38.815 86.051 44.886C451.946 357.49 512 402.895 512 454.371v20.974c0 3.535-2.889 6.424-6.434 6.424H6.434c-3.545 0-6.434-2.889-6.434-6.424v-18.977c0-61.845 62.972-98.369 113.508-105.135 35.271-4.72 64.862-9.499 78.629-49.146-14.002-12.142-25.547-23.403-28.974-47.099a23.495 23.495 0 01-7.863-2.791l-.911-.577c-5.277-3.34-8.969-8.52-11.466-14.277-2.899-6.6-4.181-14.316-4.475-20.122v-9.528c.225-8.509 1.077-15.285 7.324-21.953l-1.155-.598c-2.526-31.569 4.866-86.335-29.415-96.705zm35.662 112.47c4.034-11.554 13.415-7.843 26.791-2.957-5.337-24.225.96-43.143 19.926-56.255 40.461-27.995 58.742-4.034 102.59-39.343 25.195 12.68 47.736 34.134 36.25 101.14 12.152-9.214 29.679-8.352 24.167 12.054l-7.53 21.337c-1.802 5.101-3.007 6.952-9.459 6.609-2.85-.147-5.719-1.253-8.578-3.143 2.644 31.481-12.642 41.753-31.765 60.22-29.464 28.426-63.922 27.251-94.502.049-17.909-15.931-33.822-25.605-34.614-58.36-4.642 1.43-9.029 1.685-12.867-.499-7.638-4.347-10.429-16.999-10.84-25.107-.166-3.26-.029-12.426.431-15.745zM307.3 313.133c7.011 11.485 17.136 19.192 28.436 23.872-45.239 33.195-107.702 30.179-154.233 1.812 11.584-6.238 18.419-14.786 22.942-26.076 16.637 13.66 34.527 20.709 52.495 20.7 17.469-.01 34.624-6.649 50.36-20.308z"/></svg>